<?xml version="1.0" encoding="UTF-8" standalone="no"?>
<!-- Created with Inkscape (http://www.inkscape.org/) -->

<svg
   xmlns:dc="http://purl.org/dc/elements/1.1/"
   xmlns:cc="http://creativecommons.org/ns#"
   xmlns:rdf="http://www.w3.org/1999/02/22-rdf-syntax-ns#"
   xmlns:svg="http://www.w3.org/2000/svg"
   xmlns="http://www.w3.org/2000/svg"
   xmlns:sodipodi="http://sodipodi.sourceforge.net/DTD/sodipodi-0.dtd"
   xmlns:inkscape="http://www.inkscape.org/namespaces/inkscape"
   id="svg4281"
   version="1.1"
   inkscape:version="0.91 r13725"
   xml:space="preserve"
   width="285"
   height="355"
   viewBox="0 0 285 355"
   sodipodi:docname="bhrscore-w3.svg"><metadata
     id="metadata4287"><rdf:RDF><cc:Work
         rdf:about=""><dc:format>image/svg+xml</dc:format><dc:type
           rdf:resource="http://purl.org/dc/dcmitype/StillImage" /><dc:title></dc:title></cc:Work></rdf:RDF></metadata><defs
     id="defs4285" /><sodipodi:namedview
     pagecolor="#ffffff"
     bordercolor="#666666"
     borderopacity="1"
     objecttolerance="10"
     gridtolerance="10"
     guidetolerance="10"
     inkscape:pageopacity="0"
     inkscape:pageshadow="2"
     inkscape:window-width="1226"
     inkscape:window-height="713"
     id="namedview4283"
     showgrid="false"
     inkscape:zoom="0.66478873"
     inkscape:cx="142.5"
     inkscape:cy="177.5"
     inkscape:window-x="347"
     inkscape:window-y="120"
     inkscape:window-maximized="0"
     inkscape:current-layer="g4289" /><g
     id="g4289"
     inkscape:groupmode="layer"
     inkscape:label="ink_ext_XXXXXX"
     transform="matrix(1.25,0,0,-1.25,0,355)"><g
       id="g4291"
       transform="scale(0.1,0.1)"><path
         d="m 568.336,1985.64 c 0,-156.55 -126.91,-283.46 -283.457,-283.46 -156.547,0 -283.46103,126.91 -283.46103,283.46 0,156.54 126.91403,283.46 283.46103,283.46 156.547,0 283.457,-126.92 283.457,-283.46"
         style="fill:#ffffff;fill-opacity:1;fill-rule:nonzero;stroke:none"
         id="path4293"
         inkscape:connector-curvature="0" /><path
         d="m 568.336,1985.64 c 0,-156.55 -126.91,-283.46 -283.457,-283.46 -156.547,0 -283.46103,126.91 -283.46103,283.46 0,156.54 126.91403,283.46 283.46103,283.46 156.547,0 283.457,-126.92 283.457,-283.46 z"
         style="fill:none;stroke:#000000;stroke-width:2.83459997;stroke-linecap:butt;stroke-linejoin:miter;stroke-miterlimit:10;stroke-dasharray:none;stroke-opacity:1"
         id="path4295"
         inkscape:connector-curvature="0" /><path
         d="m 126.957,2010.13 c -1.293,6.41 -4.008,11.14 -8.141,14.19 -4.128,3.06 -9.886,4.58 -17.269,4.58 -9.5822,0 -16.7423,-3.11 -21.4845,-9.35 -4.7187,-6.21 -7.0781,-15.62 -7.0781,-28.23 0,-12.32 2.3086,-21.66 6.9297,-28.01 4.6445,-6.33 11.4648,-9.5 20.4609,-9.5 4.008,0 7.836,0.53 11.477,1.58 3.64,1.07 7.113,2.66 10.414,4.77 l 0,21.81 -14.082,0 0,4.69 25.812,0 0,-30.17 c -4.742,-2.47 -9.848,-4.32 -15.324,-5.54 -5.477,-1.22 -11.332,-1.83 -17.563,-1.83 -12.0504,0 -21.7067,3.84 -28.9684,11.51 -7.2578,7.7 -10.8906,17.93 -10.8906,30.69 0,12.88 3.6563,23.15 10.9648,30.8 7.3321,7.65 17.1836,11.48 29.5552,11.48 4.593,0 9.335,-0.39 14.226,-1.17 4.91,-0.76 10.129,-1.94 15.656,-3.53 l 0,-18.77 -4.695,0"
         style="fill:#000000;fill-opacity:1;fill-rule:nonzero;stroke:none"
         id="path4297"
         inkscape:connector-curvature="0" /><path
         d="m 197.391,2007.79 0,-14.09 -4.692,0 c -0.195,3.16 -1.066,5.5 -2.605,7.05 -1.516,1.56 -3.739,2.34 -6.672,2.34 -5.328,0 -9.426,-1.77 -12.285,-5.32 -2.836,-3.54 -4.254,-8.64 -4.254,-15.29 l 0,-26.32 11.734,0 0,-4.7 -30.508,0 0,4.7 9.387,0 0,46.93 -9.387,0 0,4.7 18.774,0 0,-9.61 c 2.008,4.05 4.597,7.06 7.773,9.02 3.18,1.95 7.043,2.93 11.59,2.93 1.684,0 3.445,-0.21 5.277,-0.62 1.86,-0.39 3.813,-0.97 5.868,-1.72"
         style="fill:#000000;fill-opacity:1;fill-rule:nonzero;stroke:none"
         id="path4299"
         inkscape:connector-curvature="0" /><path
         d="m 230.078,1953.81 c 6.184,0 10.852,2.18 14.008,6.53 3.176,4.37 4.766,10.82 4.766,19.32 0,8.51 -1.59,14.93 -4.766,19.25 -3.156,4.35 -7.824,6.53 -14.008,6.53 -6.183,0 -10.867,-2.18 -14.043,-6.53 -3.152,-4.32 -4.73,-10.74 -4.73,-19.25 0,-8.5 1.59,-14.95 4.765,-19.32 3.18,-4.35 7.848,-6.53 14.008,-6.53 m 0,-4.69 c -8.48,0 -15.301,2.79 -20.461,8.36 -5.133,5.57 -7.699,12.97 -7.699,22.18 0,9.22 2.566,16.6 7.699,22.15 5.133,5.55 11.953,8.32 20.461,8.32 8.508,0 15.328,-2.77 20.461,-8.32 5.133,-5.55 7.699,-12.93 7.699,-22.15 0,-9.21 -2.566,-16.61 -7.699,-22.18 -5.133,-5.57 -11.953,-8.36 -20.461,-8.36"
         style="fill:#000000;fill-opacity:1;fill-rule:nonzero;stroke:none"
         id="path4301"
         inkscape:connector-curvature="0" /><path
         d="m 302.027,2007.79 18.774,0 0,-53.98 9.387,0 0,-2.35 -18.774,0 0,7.12 c -1.809,-3.08 -4.141,-5.43 -7,-7.04 -2.863,-1.61 -6.187,-2.42 -9.976,-2.42 -6.258,0 -10.864,1.68 -13.821,5.06 -2.933,3.37 -4.402,8.68 -4.402,15.91 l 0,33 -9.387,0 0,4.7 18.774,0 0,-34.4 c 0,-7.48 0.855,-12.61 2.566,-15.4 1.711,-2.79 4.754,-4.18 9.133,-4.18 4.594,0 8.09,1.81 10.484,5.43 2.422,3.64 3.629,8.92 3.629,15.84 l 0,28.01 -9.387,0 0,4.7"
         style="fill:#000000;fill-opacity:1;fill-rule:nonzero;stroke:none"
         id="path4303"
         inkscape:connector-curvature="0" /><path
         d="m 360.164,1982.01 0,-5.94 c 0,-7.26 1.406,-12.78 4.215,-16.57 2.812,-3.79 6.894,-5.69 12.246,-5.69 5.379,0 9.449,2.18 12.211,6.53 2.789,4.37 4.18,10.82 4.18,19.32 0,8.53 -1.391,14.96 -4.18,19.29 -2.762,4.32 -6.832,6.49 -12.211,6.49 -5.352,0 -9.434,-2.01 -12.246,-6.01 -2.809,-4.02 -4.215,-9.82 -4.215,-17.42 m -9.387,21.08 -9.386,0 0,4.7 18.773,0 0,-8.04 c 1.93,3.55 4.387,6.16 7.371,7.85 2.981,1.69 6.672,2.53 11.07,2.53 6.993,0 12.7,-2.81 17.125,-8.43 4.45,-5.63 6.672,-12.97 6.672,-22.04 0,-9.07 -2.222,-16.43 -6.672,-22.07 -4.425,-5.65 -10.132,-8.47 -17.125,-8.47 -4.398,0 -8.089,0.76 -11.07,2.27 -2.984,1.49 -5.441,3.81 -7.371,6.97 l 0,-25.67 9.387,0 0,-4.69 -28.16,0 0,4.69 9.386,0 0,70.4"
         style="fill:#000000;fill-opacity:1;fill-rule:nonzero;stroke:none"
         id="path4305"
         inkscape:connector-curvature="0" /><path
         d="m 460.031,1951.46 0,4.7 14.078,0 0,69.74 -16.425,-9.43 0,5.39 20.421,11.74 7.739,0 0,-77.44 14.078,0 0,-4.7 -39.891,0"
         style="fill:#000000;fill-opacity:1;fill-rule:nonzero;stroke:none"
         id="path4307"
         inkscape:connector-curvature="0" /><path
         d="m 568.336,851.797 c 0,-156.547 -126.91,-283.461 -283.457,-283.461 -156.547,0 -283.46103,126.914 -283.46103,283.461 0,156.543 126.91403,283.463 283.46103,283.463 156.547,0 283.457,-126.92 283.457,-283.463"
         style="fill:#ffffff;fill-opacity:1;fill-rule:nonzero;stroke:none"
         id="path4309"
         inkscape:connector-curvature="0" /><path
         d="m 568.336,851.797 c 0,-156.547 -126.91,-283.461 -283.457,-283.461 -156.547,0 -283.46103,126.914 -283.46103,283.461 0,156.543 126.91403,283.463 283.46103,283.463 156.547,0 283.457,-126.92 283.457,-283.463 z"
         style="fill:none;stroke:#000000;stroke-width:2.83459997;stroke-linecap:butt;stroke-linejoin:miter;stroke-miterlimit:10;stroke-dasharray:none;stroke-opacity:1"
         id="path4311"
         inkscape:connector-curvature="0" /><path
         d="m 126.957,876.289 c -1.293,6.406 -4.008,11.137 -8.141,14.191 -4.128,3.055 -9.886,4.583 -17.269,4.583 -9.5822,0 -16.7423,-3.114 -21.4845,-9.348 -4.7187,-6.211 -7.0781,-15.621 -7.0781,-28.235 0,-12.32 2.3086,-21.656 6.9297,-28.011 4.6445,-6.332 11.4648,-9.496 20.4609,-9.496 4.008,0 7.836,0.523 11.477,1.574 3.64,1.078 7.113,2.664 10.414,4.769 l 0,21.817 -14.082,0 0,4.691 25.812,0 0,-30.176 c -4.742,-2.468 -9.848,-4.316 -15.324,-5.535 -5.477,-1.222 -11.332,-1.836 -17.563,-1.836 -12.0504,0 -21.7067,3.84 -28.9684,11.516 -7.2578,7.699 -10.8906,17.93 -10.8906,30.687 0,12.883 3.6563,23.149 10.9648,30.801 7.3321,7.653 17.1836,11.477 29.5552,11.477 4.593,0 9.335,-0.391 14.226,-1.176 4.91,-0.758 10.129,-1.93 15.656,-3.519 l 0,-18.774 -4.695,0"
         style="fill:#000000;fill-opacity:1;fill-rule:nonzero;stroke:none"
         id="path4313"
         inkscape:connector-curvature="0" /><path
         d="m 197.391,873.945 0,-14.082 -4.692,0 c -0.195,3.153 -1.066,5.5 -2.605,7.039 -1.516,1.567 -3.739,2.348 -6.672,2.348 -5.328,0 -9.426,-1.77 -12.285,-5.316 -2.836,-3.543 -4.254,-8.641 -4.254,-15.289 l 0,-26.329 11.734,0 0,-4.691 -30.508,0 0,4.691 9.387,0 0,46.934 -9.387,0 0,4.695 18.774,0 0,-9.609 c 2.008,4.059 4.597,7.066 7.773,9.023 3.18,1.954 7.043,2.93 11.59,2.93 1.684,0 3.445,-0.207 5.277,-0.621 1.86,-0.391 3.813,-0.965 5.868,-1.723"
         style="fill:#000000;fill-opacity:1;fill-rule:nonzero;stroke:none"
         id="path4315"
         inkscape:connector-curvature="0" /><path
         d="m 230.078,819.973 c 6.184,0 10.852,2.175 14.008,6.523 3.176,4.379 4.766,10.82 4.766,19.324 0,8.508 -1.59,14.926 -4.766,19.25 -3.156,4.352 -7.824,6.528 -14.008,6.528 -6.183,0 -10.867,-2.176 -14.043,-6.528 -3.152,-4.324 -4.73,-10.742 -4.73,-19.25 0,-8.504 1.59,-14.945 4.765,-19.324 3.18,-4.348 7.848,-6.523 14.008,-6.523 m 0,-4.696 c -8.48,0 -15.301,2.789 -20.461,8.36 -5.133,5.574 -7.699,12.968 -7.699,22.183 0,9.215 2.566,16.598 7.699,22.149 5.133,5.547 11.953,8.32 20.461,8.32 8.508,0 15.328,-2.773 20.461,-8.32 5.133,-5.551 7.699,-12.934 7.699,-22.149 0,-9.215 -2.566,-16.609 -7.699,-22.183 -5.133,-5.571 -11.953,-8.36 -20.461,-8.36"
         style="fill:#000000;fill-opacity:1;fill-rule:nonzero;stroke:none"
         id="path4317"
         inkscape:connector-curvature="0" /><path
         d="m 302.027,873.945 18.774,0 0,-53.972 9.387,0 0,-2.348 -18.774,0 0,7.113 c -1.809,-3.082 -4.141,-5.425 -7,-7.039 -2.863,-1.613 -6.187,-2.422 -9.976,-2.422 -6.258,0 -10.864,1.688 -13.821,5.063 -2.933,3.371 -4.402,8.676 -4.402,15.91 l 0,33 -9.387,0 0,4.695 18.774,0 0,-34.394 c 0,-7.481 0.855,-12.613 2.566,-15.399 1.711,-2.789 4.754,-4.179 9.133,-4.179 4.594,0 8.09,1.808 10.484,5.425 2.422,3.641 3.629,8.922 3.629,15.84 l 0,28.012 -9.387,0 0,4.695"
         style="fill:#000000;fill-opacity:1;fill-rule:nonzero;stroke:none"
         id="path4319"
         inkscape:connector-curvature="0" /><path
         d="m 360.164,848.168 0,-5.941 c 0,-7.258 1.406,-12.782 4.215,-16.571 2.812,-3.789 6.894,-5.683 12.246,-5.683 5.379,0 9.449,2.175 12.211,6.523 2.789,4.379 4.18,10.82 4.18,19.324 0,8.532 -1.391,14.961 -4.18,19.289 -2.762,4.325 -6.832,6.489 -12.211,6.489 -5.352,0 -9.434,-2.004 -12.246,-6.012 -2.809,-4.012 -4.215,-9.816 -4.215,-17.418 m -9.387,21.082 -9.386,0 0,4.695 18.773,0 0,-8.031 c 1.93,3.543 4.387,6.16 7.371,7.848 2.981,1.687 6.672,2.527 11.07,2.527 6.993,0 12.7,-2.809 17.125,-8.43 4.45,-5.625 6.672,-12.968 6.672,-22.039 0,-9.066 -2.222,-16.425 -6.672,-22.074 -4.425,-5.644 -10.132,-8.469 -17.125,-8.469 -4.398,0 -8.089,0.758 -11.07,2.274 -2.984,1.492 -5.441,3.812 -7.371,6.969 l 0,-25.668 9.387,0 0,-4.692 -28.16,0 0,4.692 9.386,0 0,70.398"
         style="fill:#000000;fill-opacity:1;fill-rule:nonzero;stroke:none"
         id="path4321"
         inkscape:connector-curvature="0" /><path
         d="m 455.336,880.984 -4.691,0 0,14.079 c 3.957,1.515 7.941,2.679 11.953,3.484 4.007,0.808 7.929,1.211 11.769,1.211 8.629,0 15.434,-2.016 20.422,-6.051 4.988,-4.031 7.481,-9.519 7.481,-16.465 0,-7.82 -5.77,-17.183 -17.309,-28.086 -0.902,-0.804 -1.574,-1.429 -2.016,-1.867 l -21.816,-20.277 36.445,0 0,9.386 4.696,0 0,-18.773 -51.625,0 0,5.977 23.793,24.824 c 5.796,5.426 9.925,10.398 12.394,14.922 2.469,4.547 3.703,9.312 3.703,14.3 0,5.473 -1.515,9.739 -4.547,12.797 -3.031,3.078 -7.211,4.618 -12.539,4.618 -5.523,0 -9.789,-1.172 -12.797,-3.52 -3.007,-2.344 -4.777,-5.867 -5.316,-10.559"
         style="fill:#000000;fill-opacity:1;fill-rule:nonzero;stroke:none"
         id="path4323"
         inkscape:connector-curvature="0" /><path
         d="m 2269.1,2552.56 c 0,-156.55 -126.92,-283.46 -283.46,-283.46 -156.55,0 -283.46,126.91 -283.46,283.46 0,156.55 126.91,283.46 283.46,283.46 156.54,0 283.46,-126.91 283.46,-283.46"
         style="fill:#ffffff;fill-opacity:1;fill-rule:nonzero;stroke:none"
         id="path4325"
         inkscape:connector-curvature="0" /><path
         d="m 2269.1,2552.56 c 0,-156.55 -126.92,-283.46 -283.46,-283.46 -156.55,0 -283.46,126.91 -283.46,283.46 0,156.55 126.91,283.46 283.46,283.46 156.54,0 283.46,-126.91 283.46,-283.46 z"
         style="fill:none;stroke:#000000;stroke-width:2.83459997;stroke-linecap:butt;stroke-linejoin:miter;stroke-miterlimit:10;stroke-dasharray:none;stroke-opacity:1"
         id="path4327"
         inkscape:connector-curvature="0" /><path
         d="m 1777.74,2593.48 24.75,-64.5 24.9,64.5 -8.62,0 0,4.69 21.52,0 0,-4.69 -7.88,0 -29,-75.09 -9.39,0 -28.86,75.09 -7,0 0,4.69 29,0 0,-4.69 -9.42,0"
         style="fill:#000000;fill-opacity:1;fill-rule:nonzero;stroke:none"
         id="path4329"
         inkscape:connector-curvature="0" /><path
         d="m 1886.91,2546.54 -44.58,0 0,-0.47 c 0,-8.36 1.61,-14.68 4.84,-18.96 3.25,-4.25 8.03,-6.38 14.33,-6.38 4.82,0 8.77,1.19 11.85,3.56 3.1,2.37 5.28,5.88 6.53,10.52 l 7.03,0 c -1.58,-6.23 -4.54,-10.92 -8.87,-14.08 -4.3,-3.13 -9.96,-4.69 -16.97,-4.69 -8.46,0 -15.27,2.78 -20.43,8.36 -5.13,5.57 -7.7,12.97 -7.7,22.18 0,9.14 2.48,16.5 7.45,22.08 4.96,5.59 11.47,8.39 19.54,8.39 8.61,0 15.2,-2.6 19.8,-7.81 4.62,-5.2 7.02,-12.77 7.18,-22.7 m -9.38,4.7 c -0.24,6.99 -1.85,12.26 -4.8,15.8 -2.96,3.55 -7.2,5.32 -12.73,5.32 -5.18,0 -9.26,-1.79 -12.24,-5.36 -2.96,-3.56 -4.77,-8.82 -5.43,-15.76 l 35.2,0"
         style="fill:#000000;fill-opacity:1;fill-rule:nonzero;stroke:none"
         id="path4331"
         inkscape:connector-curvature="0" /><path
         d="m 1899.49,2518.39 0,4.69 9.39,0 0,46.93 -9.39,0 0,4.69 18.78,0 0,-9.2 c 1.8,3.81 4.14,6.69 7,8.62 2.88,1.95 6.25,2.93 10.08,2.93 6.21,0 10.78,-1.82 13.72,-5.46 2.93,-3.64 4.39,-9.33 4.39,-17.05 l 0,-31.46 9.39,0 0,-4.69 -28.16,0 0,4.69 9.39,0 0,28.27 c 0,8.04 -0.87,13.55 -2.6,16.53 -1.71,2.99 -4.75,4.48 -9.1,4.48 -4.59,0 -8.1,-1.92 -10.52,-5.76 -2.4,-3.81 -3.59,-9.37 -3.59,-16.68 l 0,-26.84 9.38,0 0,-4.69 -28.16,0"
         style="fill:#000000;fill-opacity:1;fill-rule:nonzero;stroke:none"
         id="path4333"
         inkscape:connector-curvature="0" /><path
         d="m 2004.56,2574.7 18.77,0 0,-53.97 9.39,0 0,-2.34 -18.77,0 0,7.11 c -1.81,-3.08 -4.15,-5.43 -7.01,-7.04 -2.86,-1.62 -6.18,-2.42 -9.97,-2.42 -6.26,0 -10.86,1.69 -13.82,5.06 -2.94,3.37 -4.4,8.68 -4.4,15.91 l 0,33 -9.39,0 0,4.69 18.77,0 0,-34.39 c 0,-7.48 0.86,-12.61 2.57,-15.4 1.71,-2.78 4.75,-4.18 9.13,-4.18 4.6,0 8.09,1.81 10.49,5.43 2.42,3.64 3.63,8.92 3.63,15.84 l 0,28.01 -9.39,0 0,4.69"
         style="fill:#000000;fill-opacity:1;fill-rule:nonzero;stroke:none"
         id="path4335"
         inkscape:connector-curvature="0" /><path
         d="m 2097.89,2546.54 -44.58,0 0,-0.47 c 0,-8.36 1.61,-14.68 4.84,-18.96 3.25,-4.25 8.03,-6.38 14.33,-6.38 4.82,0 8.77,1.19 11.85,3.56 3.1,2.37 5.28,5.88 6.53,10.52 l 7.03,0 c -1.59,-6.23 -4.54,-10.92 -8.87,-14.08 -4.3,-3.13 -9.96,-4.69 -16.98,-4.69 -8.45,0 -15.26,2.78 -20.42,8.36 -5.13,5.57 -7.7,12.97 -7.7,22.18 0,9.14 2.48,16.5 7.44,22.08 4.97,5.59 11.48,8.39 19.55,8.39 8.6,0 15.2,-2.6 19.8,-7.81 4.62,-5.2 7.01,-12.77 7.18,-22.7 m -9.38,4.7 c -0.25,6.99 -1.85,12.26 -4.81,15.8 -2.95,3.55 -7.2,5.32 -12.72,5.32 -5.18,0 -9.26,-1.79 -12.25,-5.36 -2.95,-3.56 -4.76,-8.82 -5.42,-15.76 l 35.2,0"
         style="fill:#000000;fill-opacity:1;fill-rule:nonzero;stroke:none"
         id="path4337"
         inkscape:connector-curvature="0" /><path
         d="m 2157.61,2518.39 0,4.69 14.07,0 0,69.74 -16.42,-9.43 0,5.4 20.42,11.73 7.74,0 0,-77.44 14.08,0 0,-4.69 -39.89,0"
         style="fill:#000000;fill-opacity:1;fill-rule:nonzero;stroke:none"
         id="path4339"
         inkscape:connector-curvature="0" /><path
         d="m 2269.1,1418.72 c 0,-156.55 -126.92,-283.46 -283.46,-283.46 -156.55,0 -283.46,126.91 -283.46,283.46 0,156.55 126.91,283.46 283.46,283.46 156.54,0 283.46,-126.91 283.46,-283.46"
         style="fill:#ffffff;fill-opacity:1;fill-rule:nonzero;stroke:none"
         id="path4341"
         inkscape:connector-curvature="0" /><path
         d="m 2269.1,1418.72 c 0,-156.55 -126.92,-283.46 -283.46,-283.46 -156.55,0 -283.46,126.91 -283.46,283.46 0,156.55 126.91,283.46 283.46,283.46 156.54,0 283.46,-126.91 283.46,-283.46 z"
         style="fill:none;stroke:#000000;stroke-width:2.83459997;stroke-linecap:butt;stroke-linejoin:miter;stroke-miterlimit:10;stroke-dasharray:none;stroke-opacity:1"
         id="path4343"
         inkscape:connector-curvature="0" /><path
         d="m 1777.74,1459.64 24.75,-64.5 24.9,64.5 -8.62,0 0,4.69 21.52,0 0,-4.69 -7.88,0 -29,-75.1 -9.39,0 -28.86,75.1 -7,0 0,4.69 29,0 0,-4.69 -9.42,0"
         style="fill:#000000;fill-opacity:1;fill-rule:nonzero;stroke:none"
         id="path4345"
         inkscape:connector-curvature="0" /><path
         d="m 1886.91,1412.7 -44.58,0 0,-0.47 c 0,-8.36 1.61,-14.68 4.84,-18.96 3.25,-4.25 8.03,-6.38 14.33,-6.38 4.82,0 8.77,1.19 11.85,3.56 3.1,2.37 5.28,5.88 6.53,10.52 l 7.03,0 c -1.58,-6.23 -4.54,-10.93 -8.87,-14.08 -4.3,-3.13 -9.96,-4.69 -16.97,-4.69 -8.46,0 -15.27,2.78 -20.43,8.36 -5.13,5.57 -7.7,12.97 -7.7,22.18 0,9.14 2.48,16.5 7.45,22.07 4.96,5.6 11.47,8.4 19.54,8.4 8.61,0 15.2,-2.6 19.8,-7.81 4.62,-5.2 7.02,-12.77 7.18,-22.7 m -9.38,4.7 c -0.24,6.99 -1.85,12.26 -4.8,15.8 -2.96,3.55 -7.2,5.32 -12.73,5.32 -5.18,0 -9.26,-1.79 -12.24,-5.36 -2.96,-3.57 -4.77,-8.82 -5.43,-15.76 l 35.2,0"
         style="fill:#000000;fill-opacity:1;fill-rule:nonzero;stroke:none"
         id="path4347"
         inkscape:connector-curvature="0" /><path
         d="m 1899.49,1384.54 0,4.7 9.39,0 0,46.93 -9.39,0 0,4.69 18.78,0 0,-9.2 c 1.8,3.81 4.14,6.69 7,8.62 2.88,1.95 6.25,2.93 10.08,2.93 6.21,0 10.78,-1.82 13.72,-5.46 2.93,-3.64 4.39,-9.33 4.39,-17.05 l 0,-31.46 9.39,0 0,-4.7 -28.16,0 0,4.7 9.39,0 0,28.27 c 0,8.04 -0.87,13.55 -2.6,16.53 -1.71,2.99 -4.75,4.48 -9.1,4.48 -4.59,0 -8.1,-1.92 -10.52,-5.76 -2.4,-3.81 -3.59,-9.37 -3.59,-16.68 l 0,-26.84 9.38,0 0,-4.7 -28.16,0"
         style="fill:#000000;fill-opacity:1;fill-rule:nonzero;stroke:none"
         id="path4349"
         inkscape:connector-curvature="0" /><path
         d="m 2004.56,1440.86 18.77,0 0,-53.97 9.39,0 0,-2.35 -18.77,0 0,7.12 c -1.81,-3.08 -4.15,-5.43 -7.01,-7.04 -2.86,-1.62 -6.18,-2.42 -9.97,-2.42 -6.26,0 -10.86,1.68 -13.82,5.06 -2.94,3.37 -4.4,8.68 -4.4,15.91 l 0,33 -9.39,0 0,4.69 18.77,0 0,-34.39 c 0,-7.48 0.86,-12.61 2.57,-15.4 1.71,-2.78 4.75,-4.18 9.13,-4.18 4.6,0 8.09,1.81 10.49,5.43 2.42,3.64 3.63,8.92 3.63,15.84 l 0,28.01 -9.39,0 0,4.69"
         style="fill:#000000;fill-opacity:1;fill-rule:nonzero;stroke:none"
         id="path4351"
         inkscape:connector-curvature="0" /><path
         d="m 2097.89,1412.7 -44.58,0 0,-0.47 c 0,-8.36 1.61,-14.68 4.84,-18.96 3.25,-4.25 8.03,-6.38 14.33,-6.38 4.82,0 8.77,1.19 11.85,3.56 3.1,2.37 5.28,5.88 6.53,10.52 l 7.03,0 c -1.59,-6.23 -4.54,-10.93 -8.87,-14.08 -4.3,-3.13 -9.96,-4.69 -16.98,-4.69 -8.45,0 -15.26,2.78 -20.42,8.36 -5.13,5.57 -7.7,12.97 -7.7,22.18 0,9.14 2.48,16.5 7.44,22.07 4.97,5.6 11.48,8.4 19.55,8.4 8.6,0 15.2,-2.6 19.8,-7.81 4.62,-5.2 7.01,-12.77 7.18,-22.7 m -9.38,4.7 c -0.25,6.99 -1.85,12.26 -4.81,15.8 -2.95,3.55 -7.2,5.32 -12.72,5.32 -5.18,0 -9.26,-1.79 -12.25,-5.36 -2.95,-3.57 -4.76,-8.82 -5.42,-15.76 l 35.2,0"
         style="fill:#000000;fill-opacity:1;fill-rule:nonzero;stroke:none"
         id="path4353"
         inkscape:connector-curvature="0" /><path
         d="m 2152.91,1447.9 -4.69,0 0,14.08 c 3.96,1.52 7.94,2.68 11.95,3.49 4.01,0.8 7.93,1.21 11.77,1.21 8.63,0 15.44,-2.02 20.42,-6.05 4.99,-4.04 7.48,-9.52 7.48,-16.47 0,-7.82 -5.77,-17.18 -17.3,-28.08 -0.91,-0.81 -1.58,-1.43 -2.02,-1.87 l -21.82,-20.28 36.45,0 0,9.39 4.69,0 0,-18.78 -51.62,0 0,5.98 23.8,24.82 c 5.79,5.43 9.92,10.41 12.39,14.93 2.47,4.54 3.7,9.31 3.7,14.3 0,5.47 -1.52,9.74 -4.55,12.79 -3.03,3.09 -7.21,4.62 -12.54,4.62 -5.52,0 -9.79,-1.17 -12.79,-3.52 -3.01,-2.34 -4.78,-5.86 -5.32,-10.56"
         style="fill:#000000;fill-opacity:1;fill-rule:nonzero;stroke:none"
         id="path4355"
         inkscape:connector-curvature="0" /><path
         d="m 2269.1,284.879 c 0,-156.547 -126.92,-283.46103 -283.46,-283.46103 -156.55,0 -283.46,126.91403 -283.46,283.46103 0,156.547 126.91,283.457 283.46,283.457 156.54,0 283.46,-126.91 283.46,-283.457"
         style="fill:#ffffff;fill-opacity:1;fill-rule:nonzero;stroke:none"
         id="path4357"
         inkscape:connector-curvature="0" /><path
         d="m 2269.1,284.879 c 0,-156.547 -126.92,-283.46103 -283.46,-283.46103 -156.55,0 -283.46,126.91403 -283.46,283.46103 0,156.547 126.91,283.457 283.46,283.457 156.54,0 283.46,-126.91 283.46,-283.457 z"
         style="fill:none;stroke:#000000;stroke-width:2.83459997;stroke-linecap:butt;stroke-linejoin:miter;stroke-miterlimit:10;stroke-dasharray:none;stroke-opacity:1"
         id="path4359"
         inkscape:connector-curvature="0" /><path
         d="m 1777.74,325.797 24.75,-64.496 24.9,64.496 -8.62,0 0,4.695 21.52,0 0,-4.695 -7.88,0 -29,-75.094 -9.39,0 -28.86,75.094 -7,0 0,4.695 29,0 0,-4.695 -9.42,0"
         style="fill:#000000;fill-opacity:1;fill-rule:nonzero;stroke:none"
         id="path4361"
         inkscape:connector-curvature="0" /><path
         d="m 1886.91,278.863 -44.58,0 0,-0.476 c 0,-8.36 1.61,-14.68 4.84,-18.957 3.25,-4.25 8.03,-6.379 14.33,-6.379 4.82,0 8.77,1.187 11.85,3.558 3.1,2.371 5.28,5.879 6.53,10.524 l 7.03,0 c -1.58,-6.235 -4.54,-10.93 -8.87,-14.082 -4.3,-3.129 -9.96,-4.692 -16.97,-4.692 -8.46,0 -15.27,2.786 -20.43,8.36 -5.13,5.574 -7.7,12.965 -7.7,22.183 0,9.141 2.48,16.5 7.45,22.071 4.96,5.597 11.47,8.398 19.54,8.398 8.61,0 15.2,-2.605 19.8,-7.808 4.62,-5.208 7.02,-12.774 7.18,-22.7 m -9.38,4.696 c -0.24,6.988 -1.85,12.257 -4.8,15.8 -2.96,3.547 -7.2,5.317 -12.73,5.317 -5.18,0 -9.26,-1.781 -12.24,-5.352 -2.96,-3.57 -4.77,-8.824 -5.43,-15.765 l 35.2,0"
         style="fill:#000000;fill-opacity:1;fill-rule:nonzero;stroke:none"
         id="path4363"
         inkscape:connector-curvature="0" /><path
         d="m 1899.49,250.703 0,4.695 9.39,0 0,46.934 -9.39,0 0,4.691 18.78,0 0,-9.203 c 1.8,3.813 4.14,6.688 7,8.618 2.88,1.957 6.25,2.933 10.08,2.933 6.21,0 10.78,-1.82 13.72,-5.465 2.93,-3.64 4.39,-9.324 4.39,-17.047 l 0,-31.461 9.39,0 0,-4.695 -28.16,0 0,4.695 9.39,0 0,28.27 c 0,8.043 -0.87,13.555 -2.6,16.535 -1.71,2.985 -4.75,4.473 -9.1,4.473 -4.59,0 -8.1,-1.918 -10.52,-5.754 -2.4,-3.813 -3.59,-9.375 -3.59,-16.684 l 0,-26.84 9.38,0 0,-4.695 -28.16,0"
         style="fill:#000000;fill-opacity:1;fill-rule:nonzero;stroke:none"
         id="path4365"
         inkscape:connector-curvature="0" /><path
         d="m 2004.56,307.023 18.77,0 0,-53.972 9.39,0 0,-2.348 -18.77,0 0,7.113 c -1.81,-3.078 -4.15,-5.425 -7.01,-7.039 -2.86,-1.613 -6.18,-2.418 -9.97,-2.418 -6.26,0 -10.86,1.684 -13.82,5.059 -2.94,3.375 -4.4,8.676 -4.4,15.914 l 0,33 -9.39,0 0,4.691 18.77,0 0,-34.39 c 0,-7.481 0.86,-12.613 2.57,-15.403 1.71,-2.785 4.75,-4.179 9.13,-4.179 4.6,0 8.09,1.808 10.49,5.426 2.42,3.644 3.63,8.921 3.63,15.839 l 0,28.016 -9.39,0 0,4.691"
         style="fill:#000000;fill-opacity:1;fill-rule:nonzero;stroke:none"
         id="path4367"
         inkscape:connector-curvature="0" /><path
         d="m 2097.89,278.863 -44.58,0 0,-0.476 c 0,-8.36 1.61,-14.68 4.84,-18.957 3.25,-4.25 8.03,-6.379 14.33,-6.379 4.82,0 8.77,1.187 11.85,3.558 3.1,2.371 5.28,5.879 6.53,10.524 l 7.03,0 c -1.59,-6.235 -4.54,-10.93 -8.87,-14.082 -4.3,-3.129 -9.96,-4.692 -16.98,-4.692 -8.45,0 -15.26,2.786 -20.42,8.36 -5.13,5.574 -7.7,12.965 -7.7,22.183 0,9.141 2.48,16.5 7.44,22.071 4.97,5.597 11.48,8.398 19.55,8.398 8.6,0 15.2,-2.605 19.8,-7.808 4.62,-5.208 7.01,-12.774 7.18,-22.7 m -9.38,4.696 c -0.25,6.988 -1.85,12.257 -4.81,15.8 -2.95,3.547 -7.2,5.317 -12.72,5.317 -5.18,0 -9.26,-1.781 -12.25,-5.352 -2.95,-3.57 -4.76,-8.824 -5.42,-15.765 l 35.2,0"
         style="fill:#000000;fill-opacity:1;fill-rule:nonzero;stroke:none"
         id="path4369"
         inkscape:connector-curvature="0" /><path
         d="m 2152.91,328.145 c 4.3,1.539 8.43,2.699 12.39,3.484 3.99,0.805 7.72,1.207 11.19,1.207 8.06,0 14.36,-1.77 18.88,-5.316 4.55,-3.543 6.82,-8.457 6.82,-14.739 0,-5.058 -1.62,-9.289 -4.88,-12.687 -3.25,-3.371 -7.87,-5.66 -13.86,-6.856 6.68,-0.929 11.86,-3.3 15.55,-7.113 3.69,-3.812 5.54,-8.738 5.54,-14.777 0,-7.43 -2.54,-13.125 -7.63,-17.086 -5.09,-3.938 -12.39,-5.903 -21.93,-5.903 -4.23,0 -8.35,0.391 -12.39,1.172 -4.03,0.758 -8.04,1.93 -12.03,3.52 l 0,16.426 4.7,0 c 0.37,-5.403 2.16,-9.497 5.39,-12.282 3.25,-2.761 7.82,-4.144 13.71,-4.144 5.69,0 10.19,1.601 13.5,4.804 3.29,3.227 4.94,7.649 4.94,13.274 0,6.402 -1.67,11.242 -5.02,14.519 -3.35,3.301 -8.25,4.95 -14.7,4.95 l -5.43,0 0,4.691 2.86,0 c 6.65,0 11.63,1.418 14.96,4.254 3.32,2.836 4.99,7.102 4.99,12.797 0,5.109 -1.37,9.019 -4.11,11.734 -2.74,2.715 -6.67,4.071 -11.81,4.071 -5.13,0 -9.11,-1.188 -11.95,-3.559 -2.84,-2.371 -4.5,-5.879 -4.98,-10.523 l -4.7,0 0,14.082"
         style="fill:#000000;fill-opacity:1;fill-rule:nonzero;stroke:none"
         id="path4371"
         inkscape:connector-curvature="0" /><path
         d="m 485.316,2186.07 c 311.778,259.07 692.944,420.61 1095.934,464.44"
         style="fill:none;stroke:#000000;stroke-width:2.83459997;stroke-linecap:butt;stroke-linejoin:miter;stroke-miterlimit:10;stroke-dasharray:none;stroke-opacity:1"
         id="path4373"
         inkscape:connector-curvature="0" /><path
         d="m 1582.1,2620.03 140.24,40.95 -143.01,29.86"
         style="fill:#000000;fill-opacity:1;fill-rule:evenodd;stroke:none"
         id="path4375"
         inkscape:connector-curvature="0" /><path
         d="m 1582.1,2620.03 140.24,40.95 -143.01,29.86 2.77,-70.81 z"
         style="fill:none;stroke:#000000;stroke-width:2.83459997;stroke-linecap:butt;stroke-linejoin:miter;stroke-miterlimit:10;stroke-dasharray:none;stroke-opacity:1"
         id="path4377"
         inkscape:connector-curvature="0" /><path
         d="m 568.336,1985.64 c 377.898,-12 742.844,-140.59 1044.794,-368.12"
         style="fill:none;stroke:#000000;stroke-width:2.83459997;stroke-linecap:butt;stroke-linejoin:miter;stroke-miterlimit:10;stroke-dasharray:none;stroke-opacity:1"
         id="path4379"
         inkscape:connector-curvature="0" /><path
         d="m 1593.02,1595.43 129.67,-67.3 -82.74,120.4"
         style="fill:#000000;fill-opacity:1;fill-rule:evenodd;stroke:none"
         id="path4381"
         inkscape:connector-curvature="0" /><path
         d="m 1593.02,1595.43 129.67,-67.3 -82.74,120.4 -46.93,-53.1 z"
         style="fill:none;stroke:#000000;stroke-width:2.83459997;stroke-linecap:butt;stroke-linejoin:miter;stroke-miterlimit:10;stroke-dasharray:none;stroke-opacity:1"
         id="path4383"
         inkscape:connector-curvature="0" /><path
         d="M 485.316,1785.2 C 967.297,1477.49 1382.49,1076 1706.19,604.609"
         style="fill:none;stroke:#000000;stroke-width:2.83459997;stroke-linecap:butt;stroke-linejoin:miter;stroke-miterlimit:10;stroke-dasharray:none;stroke-opacity:1"
         id="path4385"
         inkscape:connector-curvature="0" /><path
         d="m 1678.3,586.902 106.14,-100.394 -46.4,138.527"
         style="fill:#000000;fill-opacity:1;fill-rule:evenodd;stroke:none"
         id="path4387"
         inkscape:connector-curvature="0" /><path
         d="m 1678.3,586.902 106.14,-100.394 -46.4,138.527 -59.74,-38.133 z"
         style="fill:none;stroke:#000000;stroke-width:2.83459997;stroke-linecap:butt;stroke-linejoin:miter;stroke-miterlimit:10;stroke-dasharray:none;stroke-opacity:1"
         id="path4389"
         inkscape:connector-curvature="0" /><path
         d="M 485.316,1052.23 C 793.023,1534.22 1194.51,1949.41 1665.9,2273.11"
         style="fill:none;stroke:#000000;stroke-width:2.83459997;stroke-linecap:butt;stroke-linejoin:miter;stroke-miterlimit:10;stroke-dasharray:none;stroke-opacity:1"
         id="path4391"
         inkscape:connector-curvature="0" /><path
         d="m 1683.61,2245.23 100.39,106.13 -138.52,-46.4"
         style="fill:#000000;fill-opacity:1;fill-rule:evenodd;stroke:none"
         id="path4393"
         inkscape:connector-curvature="0" /><path
         d="m 1683.61,2245.23 100.39,106.13 -138.52,-46.4 38.13,-59.73 z"
         style="fill:none;stroke:#000000;stroke-width:2.83459997;stroke-linecap:butt;stroke-linejoin:miter;stroke-miterlimit:10;stroke-dasharray:none;stroke-opacity:1"
         id="path4395"
         inkscape:connector-curvature="0" /><path
         d="M 568.336,851.797 C 852.863,1100.16 1206.13,1256.25 1581.34,1299.38"
         style="fill:none;stroke:#000000;stroke-width:2.83459997;stroke-linecap:butt;stroke-linejoin:miter;stroke-miterlimit:10;stroke-dasharray:none;stroke-opacity:1"
         id="path4397"
         inkscape:connector-curvature="0" /><path
         d="m 1582.05,1269.43 140.29,40.76 -142.97,30.05"
         style="fill:#000000;fill-opacity:1;fill-rule:evenodd;stroke:none"
         id="path4399"
         inkscape:connector-curvature="0" /><path
         d="m 1582.05,1269.43 140.29,40.76 -142.97,30.05 2.68,-70.81 z"
         style="fill:none;stroke:#000000;stroke-width:2.83459997;stroke-linecap:butt;stroke-linejoin:miter;stroke-miterlimit:10;stroke-dasharray:none;stroke-opacity:1"
         id="path4401"
         inkscape:connector-curvature="0" /><path
         d="M 485.313,651.359 C 889.125,629.637 1278.7,494.852 1609.6,262.383"
         style="fill:none;stroke:#000000;stroke-width:2.83459997;stroke-linecap:butt;stroke-linejoin:miter;stroke-miterlimit:10;stroke-dasharray:none;stroke-opacity:1"
         id="path4403"
         inkscape:connector-curvature="0" /><path
         d="m 1590.09,238.684 132.56,-61.391 -88.08,116.555"
         style="fill:#000000;fill-opacity:1;fill-rule:evenodd;stroke:none"
         id="path4405"
         inkscape:connector-curvature="0" /><path
         d="m 1590.09,238.684 132.56,-61.391 -88.08,116.555 -44.48,-55.164 z"
         style="fill:none;stroke:#000000;stroke-width:2.83459997;stroke-linecap:butt;stroke-linejoin:miter;stroke-miterlimit:10;stroke-dasharray:none;stroke-opacity:1"
         id="path4407"
         inkscape:connector-curvature="0" /><path
         d="M 1723.75,2661.04 C 1391.32,2439.71 1018.32,2286.45 626.313,2210.09"
         style="fill:none;stroke:#000000;stroke-width:2.83459997;stroke-linecap:butt;stroke-linejoin:miter;stroke-miterlimit:10;stroke-dasharray:70.865;stroke-dashoffset:0;stroke-opacity:1"
         id="path4409"
         inkscape:connector-curvature="0" /><path
         d="m 621.836,2241.83 -135.117,-55.55 145.363,-14.57"
         style="fill:#000000;fill-opacity:1;fill-rule:evenodd;stroke:none"
         id="path4411"
         inkscape:connector-curvature="0" /><path
         d="m 621.836,2241.83 -135.117,-55.55 145.363,-14.57 -10.246,70.12 z"
         style="fill:none;stroke:#000000;stroke-width:2.83459997;stroke-linecap:butt;stroke-linejoin:miter;stroke-miterlimit:10;stroke-dasharray:none;stroke-opacity:1"
         id="path4413"
         inkscape:connector-curvature="0" /><path
         d="M 1785.2,2352.12 C 1477.49,1870.14 1076,1454.95 604.609,1131.24"
         style="fill:none;stroke:#000000;stroke-width:2.83459997;stroke-linecap:butt;stroke-linejoin:miter;stroke-miterlimit:10;stroke-dasharray:70.865;stroke-dashoffset:0;stroke-opacity:1"
         id="path4415"
         inkscape:connector-curvature="0" /><path
         d="M 586.902,1159.13 486.508,1053 l 138.527,46.4"
         style="fill:#000000;fill-opacity:1;fill-rule:evenodd;stroke:none"
         id="path4417"
         inkscape:connector-curvature="0" /><path
         d="M 586.902,1159.13 486.508,1053 l 138.527,46.4 -38.133,59.73 z"
         style="fill:none;stroke:#000000;stroke-width:2.83459997;stroke-linecap:butt;stroke-linejoin:miter;stroke-miterlimit:10;stroke-dasharray:none;stroke-opacity:1"
         id="path4419"
         inkscape:connector-curvature="0" /><path
         d="M 1723.75,1527.19 C 1353.2,1570.62 997.789,1699.57 685.586,1903.85"
         style="fill:none;stroke:#000000;stroke-width:2.83459997;stroke-linecap:butt;stroke-linejoin:miter;stroke-miterlimit:10;stroke-dasharray:70.865;stroke-dashoffset:0;stroke-opacity:1"
         id="path4421"
         inkscape:connector-curvature="0" /><path
         d="m 704.387,1928.74 -134.91,56.05 92.656,-112.95"
         style="fill:#000000;fill-opacity:1;fill-rule:evenodd;stroke:none"
         id="path4423"
         inkscape:connector-curvature="0" /><path
         d="m 704.387,1928.74 -134.91,56.05 92.656,-112.95 42.254,56.9 z"
         style="fill:none;stroke:#000000;stroke-width:2.83459997;stroke-linecap:butt;stroke-linejoin:miter;stroke-miterlimit:10;stroke-dasharray:none;stroke-opacity:1"
         id="path4425"
         inkscape:connector-curvature="0" /><path
         d="M 1723.75,1310.24 C 1421.79,1092.22 1075.51,943.391 709.527,874.336"
         style="fill:none;stroke:#000000;stroke-width:2.83459997;stroke-linecap:butt;stroke-linejoin:miter;stroke-miterlimit:10;stroke-dasharray:70.865;stroke-dashoffset:0;stroke-opacity:1"
         id="path4427"
         inkscape:connector-curvature="0" /><path
         d="M 705.676,905.504 569.742,851.98 714.871,835.238"
         style="fill:#000000;fill-opacity:1;fill-rule:evenodd;stroke:none"
         id="path4429"
         inkscape:connector-curvature="0" /><path
         d="M 705.676,905.504 569.742,851.98 714.871,835.238 705.676,905.504 Z"
         style="fill:none;stroke:#000000;stroke-width:2.83459997;stroke-linecap:butt;stroke-linejoin:miter;stroke-miterlimit:10;stroke-dasharray:none;stroke-opacity:1"
         id="path4431"
         inkscape:connector-curvature="0" /><path
         d="M 1785.2,485.316 C 1303.21,793.023 888.023,1194.51 564.324,1665.9"
         style="fill:none;stroke:#000000;stroke-width:2.83459997;stroke-linecap:butt;stroke-linejoin:miter;stroke-miterlimit:10;stroke-dasharray:70.865;stroke-dashoffset:0;stroke-opacity:1"
         id="path4433"
         inkscape:connector-curvature="0" /><path
         d="M 592.207,1683.61 486.078,1784 532.477,1645.48"
         style="fill:#000000;fill-opacity:1;fill-rule:evenodd;stroke:none"
         id="path4435"
         inkscape:connector-curvature="0" /><path
         d="M 592.207,1683.61 486.078,1784 l 46.399,-138.52 59.73,38.13 z"
         style="fill:none;stroke:#000000;stroke-width:2.83459997;stroke-linecap:butt;stroke-linejoin:miter;stroke-miterlimit:10;stroke-dasharray:none;stroke-opacity:1"
         id="path4437"
         inkscape:connector-curvature="0" /><path
         d="M 1723.75,176.402 C 1318.7,192.246 927.262,327.02 598.309,563.898"
         style="fill:none;stroke:#000000;stroke-width:2.83459997;stroke-linecap:butt;stroke-linejoin:miter;stroke-miterlimit:10;stroke-dasharray:70.865;stroke-dashoffset:0;stroke-opacity:1"
         id="path4439"
         inkscape:connector-curvature="0" /><path
         d="M 618.059,587.125 486.406,650.453 572.77,532.621"
         style="fill:#000000;fill-opacity:1;fill-rule:evenodd;stroke:none"
         id="path4441"
         inkscape:connector-curvature="0" /><path
         d="m 618.059,587.125 -131.653,63.328 86.364,-117.832 45.289,54.504 z"
         style="fill:none;stroke:#000000;stroke-width:2.83459997;stroke-linecap:butt;stroke-linejoin:miter;stroke-miterlimit:10;stroke-dasharray:none;stroke-opacity:1"
         id="path4443"
         inkscape:connector-curvature="0" /><path
         d="m 710.066,2334.52 154.488,0 0,111.969 -154.488,0 0,-111.969 z"
         style="fill:#ffffff;fill-opacity:1;fill-rule:nonzero;stroke:none"
         id="path4445"
         inkscape:connector-curvature="0" /><path
         d="m 719.453,2422.9 c 3.496,1.54 6.844,2.71 10.047,3.49 3.203,0.8 6.211,1.21 9.02,1.21 6.55,0 11.66,-1.46 15.328,-4.37 3.664,-2.91 5.5,-6.95 5.5,-12.13 0,-4.16 -1.297,-7.63 -3.887,-10.42 -2.59,-2.78 -6.258,-4.66 -11,-5.64 5.449,-0.79 9.68,-2.79 12.687,-6.02 3.032,-3.2 4.547,-7.36 4.547,-12.46 0,-6.24 -2.105,-11.03 -6.308,-14.38 -4.18,-3.32 -10.219,-4.98 -18.114,-4.98 -3.496,0 -6.918,0.37 -10.265,1.13 -3.324,0.79 -6.625,1.97 -9.903,3.56 l 0,14.08 4.696,0 c 0.293,-4.62 1.762,-8.13 4.398,-10.52 2.641,-2.38 6.344,-3.56 11.11,-3.56 4.644,0 8.3,1.31 10.964,3.92 2.688,2.62 4.036,6.2 4.036,10.75 0,5.2 -1.36,9.14 -4.071,11.8 -2.715,2.69 -6.699,4.04 -11.953,4.04 l -4.254,0 0,4.69 2.235,0 c 5.234,0 9.156,1.11 11.769,3.34 2.617,2.22 3.926,5.57 3.926,10.04 0,4.04 -1.078,7.12 -3.227,9.24 -2.152,2.13 -5.242,3.19 -9.277,3.19 -4.035,0 -7.16,-0.99 -9.387,-2.97 -2.222,-1.95 -3.531,-4.88 -3.922,-8.76 l -4.695,0 0,11.73"
         style="fill:#000000;fill-opacity:1;fill-rule:nonzero;stroke:none"
         id="path4447"
         inkscape:connector-curvature="0" /><path
         d="m 794.164,2427.6 7.293,0 -23.207,-77.44 -7.297,0 23.211,77.44"
         style="fill:#000000;fill-opacity:1;fill-rule:nonzero;stroke:none"
         id="path4449"
         inkscape:connector-curvature="0" /><path
         d="m 834.023,2361.89 c 4.524,0 7.997,1.61 10.415,4.84 2.445,3.23 3.667,7.87 3.667,13.93 0,6.07 -1.222,10.71 -3.667,13.94 -2.418,3.22 -5.891,4.84 -10.415,4.84 -4.57,0 -8.066,-1.57 -10.484,-4.7 -2.398,-3.1 -3.594,-7.61 -3.594,-13.53 0,-6.21 1.211,-10.98 3.629,-14.33 2.446,-3.33 5.93,-4.99 10.449,-4.99 m -14.078,35.2 c 2.051,2.37 4.375,4.13 6.965,5.28 2.594,1.17 5.512,1.76 8.766,1.76 6.722,0 12.039,-2.1 15.949,-6.31 3.91,-4.18 5.867,-9.9 5.867,-17.16 0,-7.11 -2.101,-12.8 -6.308,-17.08 -4.204,-4.26 -9.825,-6.38 -16.868,-6.38 -7.625,0 -13.492,2.84 -17.597,8.54 -4.106,5.72 -6.16,13.89 -6.16,24.49 0,11.88 2.359,21.07 7.074,27.57 4.742,6.53 11.418,9.8 20.023,9.8 2.321,0 4.754,-0.2 7.293,-0.59 2.571,-0.39 5.184,-0.98 7.848,-1.76 l 0,-11.73 -4.692,0 c -0.343,3.05 -1.48,5.37 -3.41,6.96 -1.906,1.62 -4.472,2.42 -7.699,2.42 -5.695,0 -9.937,-2.11 -12.726,-6.34 -2.786,-4.23 -4.227,-10.72 -4.325,-19.47"
         style="fill:#000000;fill-opacity:1;fill-rule:nonzero;stroke:none"
         id="path4451"
         inkscape:connector-curvature="0" /><path
         d="m 710.066,1909.33 154.488,0 0,111.965 -154.488,0 0,-111.965 z"
         style="fill:#ffffff;fill-opacity:1;fill-rule:nonzero;stroke:none"
         id="path4453"
         inkscape:connector-curvature="0" /><path
         d="m 721.801,1985.98 -4.696,0 0,11.73 c 3.426,1.52 6.86,2.68 10.305,3.49 3.473,0.8 6.871,1.21 10.195,1.21 7.43,0 13.297,-1.73 17.598,-5.18 4.328,-3.44 6.492,-8.12 6.492,-14.04 0,-6.69 -4.757,-14.69 -14.265,-23.98 -0.758,-0.71 -1.321,-1.25 -1.688,-1.61 l -18.918,-18.55 30.176,0 0,9.38 4.695,0 0,-16.42 -44.59,0 0,5.17 21.27,21.37 c 5.012,4.55 8.578,8.73 10.707,12.54 2.148,3.82 3.227,7.81 3.227,11.99 0,4.6 -1.321,8.18 -3.961,10.75 -2.618,2.59 -6.235,3.88 -10.856,3.88 -4.765,0 -8.457,-0.98 -11.07,-2.93 -2.617,-1.96 -4.156,-4.89 -4.621,-8.8"
         style="fill:#000000;fill-opacity:1;fill-rule:nonzero;stroke:none"
         id="path4455"
         inkscape:connector-curvature="0" /><path
         d="m 794.164,2002.41 7.293,0 -23.207,-77.44 -7.297,0 23.211,77.44"
         style="fill:#000000;fill-opacity:1;fill-rule:nonzero;stroke:none"
         id="path4457"
         inkscape:connector-curvature="0" /><path
         d="m 834.023,1936.7 c 4.524,0 7.997,1.61 10.415,4.84 2.445,3.23 3.667,7.87 3.667,13.93 0,6.07 -1.222,10.71 -3.667,13.94 -2.418,3.22 -5.891,4.84 -10.415,4.84 -4.57,0 -8.066,-1.57 -10.484,-4.7 -2.398,-3.1 -3.594,-7.61 -3.594,-13.53 0,-6.2 1.211,-10.98 3.629,-14.33 2.446,-3.33 5.93,-4.99 10.449,-4.99 m -14.078,35.2 c 2.051,2.37 4.375,4.13 6.965,5.28 2.594,1.17 5.512,1.76 8.766,1.76 6.722,0 12.039,-2.1 15.949,-6.31 3.91,-4.18 5.867,-9.9 5.867,-17.16 0,-7.11 -2.101,-12.81 -6.308,-17.08 -4.204,-4.26 -9.825,-6.38 -16.868,-6.38 -7.625,0 -13.492,2.85 -17.597,8.54 -4.106,5.72 -6.16,13.88 -6.16,24.49 0,11.88 2.359,21.07 7.074,27.58 4.742,6.52 11.418,9.79 20.023,9.79 2.321,0 4.754,-0.2 7.293,-0.59 2.571,-0.39 5.184,-0.98 7.848,-1.76 l 0,-11.73 -4.692,0 c -0.343,3.05 -1.48,5.37 -3.41,6.96 -1.906,1.62 -4.472,2.42 -7.699,2.42 -5.695,0 -9.937,-2.11 -12.726,-6.34 -2.786,-4.23 -4.227,-10.72 -4.325,-19.47"
         style="fill:#000000;fill-opacity:1;fill-rule:nonzero;stroke:none"
         id="path4459"
         inkscape:connector-curvature="0" /><path
         d="m 650.477,1567.57 154.488,0 0,111.965 -154.488,0 0,-111.965 z"
         style="fill:#ffffff;fill-opacity:1;fill-rule:nonzero;stroke:none"
         id="path4461"
         inkscape:connector-curvature="0" /><path
         d="m 664.559,1590.24 0,4.69 11.734,0 0,57.98 -14.082,-9.68 0,5.68 17.016,11.73 6.453,0 0,-65.71 11.73,0 0,-4.69 -32.851,0"
         style="fill:#000000;fill-opacity:1;fill-rule:nonzero;stroke:none"
         id="path4463"
         inkscape:connector-curvature="0" /><path
         d="m 734.574,1660.64 7.297,0 -23.211,-77.44 -7.297,0 23.211,77.44"
         style="fill:#000000;fill-opacity:1;fill-rule:nonzero;stroke:none"
         id="path4465"
         inkscape:connector-curvature="0" /><path
         d="m 774.438,1594.93 c 4.519,0 7.992,1.62 10.41,4.84 2.445,3.23 3.668,7.87 3.668,13.94 0,6.06 -1.223,10.7 -3.668,13.93 -2.418,3.23 -5.891,4.84 -10.41,4.84 -4.575,0 -8.071,-1.56 -10.489,-4.69 -2.394,-3.11 -3.594,-7.61 -3.594,-13.53 0,-6.21 1.211,-10.99 3.629,-14.34 2.446,-3.32 5.93,-4.99 10.454,-4.99 m -14.083,35.21 c 2.055,2.37 4.375,4.13 6.969,5.27 2.59,1.18 5.512,1.77 8.762,1.77 6.723,0 12.039,-2.11 15.949,-6.31 3.91,-4.18 5.867,-9.9 5.867,-17.16 0,-7.12 -2.101,-12.81 -6.308,-17.09 -4.203,-4.25 -9.824,-6.38 -16.864,-6.38 -7.628,0 -13.496,2.85 -17.601,8.55 -4.106,5.71 -6.16,13.88 -6.16,24.49 0,11.88 2.359,21.07 7.078,27.57 4.742,6.53 11.414,9.79 20.019,9.79 2.321,0 4.754,-0.19 7.297,-0.59 2.567,-0.39 5.18,-0.97 7.844,-1.76 l 0,-11.73 -4.691,0 c -0.344,3.06 -1.481,5.38 -3.411,6.97 -1.906,1.61 -4.472,2.42 -7.699,2.42 -5.695,0 -9.937,-2.12 -12.722,-6.34 -2.789,-4.23 -4.231,-10.72 -4.329,-19.47"
         style="fill:#000000;fill-opacity:1;fill-rule:nonzero;stroke:none"
         id="path4467"
         inkscape:connector-curvature="0" /><path
         d="m 561.734,1218.56 154.488,0 0,111.965 -154.488,0 0,-111.965 z"
         style="fill:#ffffff;fill-opacity:1;fill-rule:nonzero;stroke:none"
         id="path4469"
         inkscape:connector-curvature="0" /><path
         d="m 573.469,1295.21 -4.692,0 0,11.73 c 3.422,1.52 6.856,2.68 10.301,3.49 3.473,0.8 6.871,1.2 10.195,1.2 7.43,0 13.297,-1.72 17.598,-5.17 4.328,-3.44 6.492,-8.12 6.492,-14.04 0,-6.7 -4.758,-14.69 -14.265,-23.98 -0.758,-0.71 -1.321,-1.24 -1.688,-1.61 l -18.918,-18.56 30.176,0 0,9.39 4.695,0 0,-16.43 -44.586,0 0,5.18 21.266,21.37 c 5.012,4.55 8.578,8.73 10.707,12.54 2.148,3.81 3.227,7.81 3.227,11.99 0,4.6 -1.321,8.18 -3.961,10.74 -2.618,2.59 -6.235,3.89 -10.856,3.89 -4.765,0 -8.457,-0.98 -11.07,-2.93 -2.617,-1.96 -4.156,-4.89 -4.621,-8.8"
         style="fill:#000000;fill-opacity:1;fill-rule:nonzero;stroke:none"
         id="path4471"
         inkscape:connector-curvature="0" /><path
         d="m 645.832,1311.63 7.293,0 -23.207,-77.43 -7.297,0 23.211,77.43"
         style="fill:#000000;fill-opacity:1;fill-rule:nonzero;stroke:none"
         id="path4473"
         inkscape:connector-curvature="0" /><path
         d="m 699.773,1261.22 c 0,4.82 -1.234,8.55 -3.703,11.22 -2.468,2.66 -5.929,3.99 -10.379,3.99 -4.449,0 -7.906,-1.33 -10.375,-3.99 -2.468,-2.67 -3.703,-6.4 -3.703,-11.22 0,-4.87 1.235,-8.63 3.703,-11.29 2.469,-2.67 5.926,-4 10.375,-4 4.45,0 7.911,1.33 10.379,4 2.469,2.66 3.703,6.42 3.703,11.29 m -2.347,32.85 c 0,4.06 -1.039,7.21 -3.117,9.46 -2.051,2.27 -4.926,3.41 -8.618,3.41 -3.664,0 -6.539,-1.14 -8.613,-3.41 -2.078,-2.25 -3.117,-5.4 -3.117,-9.46 0,-4.11 1.039,-7.3 3.117,-9.57 2.074,-2.25 4.949,-3.37 8.613,-3.37 3.692,0 6.567,1.12 8.618,3.37 2.078,2.27 3.117,5.46 3.117,9.57 m -4.84,-15.25 c 5.207,-0.71 9.266,-2.63 12.172,-5.76 2.933,-3.1 4.402,-7.06 4.402,-11.88 0,-6.4 -2.031,-11.33 -6.086,-14.77 -4.035,-3.45 -9.828,-5.18 -17.383,-5.18 -7.527,0 -13.32,1.73 -17.378,5.18 -4.059,3.44 -6.086,8.37 -6.086,14.77 0,4.82 1.453,8.78 4.363,11.88 2.91,3.13 6.992,5.05 12.246,5.76 -4.594,0.81 -8.129,2.53 -10.598,5.17 -2.441,2.64 -3.664,6.01 -3.664,10.12 0,5.43 1.867,9.7 5.61,12.83 3.765,3.13 8.933,4.69 15.507,4.69 6.579,0 11.735,-1.56 15.473,-4.69 3.766,-3.13 5.649,-7.4 5.649,-12.83 0,-4.11 -1.235,-7.48 -3.704,-10.12 -2.445,-2.64 -5.953,-4.36 -10.523,-5.17"
         style="fill:#000000;fill-opacity:1;fill-rule:nonzero;stroke:none"
         id="path4475"
         inkscape:connector-curvature="0" /><path
         d="m 710.066,545.66 154.488,0 0,111.969 -154.488,0 0,-111.969 z"
         style="fill:#ffffff;fill-opacity:1;fill-rule:nonzero;stroke:none"
         id="path4477"
         inkscape:connector-curvature="0" /><path
         d="m 721.801,622.309 -4.696,0 0,11.734 c 3.426,1.516 6.86,2.676 10.305,3.484 3.473,0.805 6.871,1.211 10.195,1.211 7.43,0 13.297,-1.726 17.598,-5.172 4.328,-3.445 6.492,-8.128 6.492,-14.043 0,-6.699 -4.757,-14.691 -14.265,-23.98 -0.758,-0.707 -1.321,-1.246 -1.688,-1.613 l -18.918,-18.551 30.176,0 0,9.387 4.695,0 0,-16.43 -44.59,0 0,5.172 21.27,21.375 c 5.012,4.547 8.578,8.726 10.707,12.539 2.148,3.816 3.227,7.812 3.227,11.992 0,4.594 -1.321,8.176 -3.961,10.742 -2.618,2.59 -6.235,3.887 -10.856,3.887 -4.765,0 -8.457,-0.977 -11.07,-2.934 -2.617,-1.953 -4.156,-4.886 -4.621,-8.8"
         style="fill:#000000;fill-opacity:1;fill-rule:nonzero;stroke:none"
         id="path4479"
         inkscape:connector-curvature="0" /><path
         d="m 794.164,638.738 7.293,0 -23.207,-77.441 -7.297,0 23.211,77.441"
         style="fill:#000000;fill-opacity:1;fill-rule:nonzero;stroke:none"
         id="path4481"
         inkscape:connector-curvature="0" /><path
         d="m 848.105,588.32 c 0,4.817 -1.234,8.555 -3.703,11.219 -2.468,2.664 -5.929,3.996 -10.379,3.996 -4.449,0 -7.906,-1.332 -10.375,-3.996 -2.468,-2.664 -3.703,-6.402 -3.703,-11.219 0,-4.863 1.235,-8.629 3.703,-11.293 2.469,-2.664 5.926,-3.996 10.375,-3.996 4.45,0 7.911,1.332 10.379,3.996 2.469,2.664 3.703,6.43 3.703,11.293 m -2.347,32.852 c 0,4.058 -1.039,7.211 -3.117,9.461 -2.055,2.273 -4.926,3.41 -8.618,3.41 -3.664,0 -6.539,-1.137 -8.617,-3.41 -2.074,-2.25 -3.113,-5.403 -3.113,-9.461 0,-4.106 1.039,-7.293 3.113,-9.567 2.078,-2.25 4.953,-3.375 8.617,-3.375 3.692,0 6.563,1.125 8.618,3.375 2.078,2.274 3.117,5.461 3.117,9.567 m -4.84,-15.25 c 5.207,-0.711 9.266,-2.629 12.172,-5.758 2.933,-3.105 4.402,-7.066 4.402,-11.879 0,-6.406 -2.031,-11.332 -6.086,-14.777 -4.035,-3.445 -9.828,-5.172 -17.383,-5.172 -7.527,0 -13.32,1.727 -17.378,5.172 -4.059,3.445 -6.086,8.371 -6.086,14.777 0,4.813 1.453,8.774 4.363,11.879 2.91,3.129 6.992,5.047 12.246,5.758 -4.594,0.805 -8.129,2.527 -10.598,5.168 -2.441,2.64 -3.664,6.015 -3.664,10.121 0,5.426 1.867,9.703 5.61,12.832 3.761,3.129 8.933,4.695 15.507,4.695 6.579,0 11.735,-1.566 15.473,-4.695 3.766,-3.129 5.649,-7.406 5.649,-12.832 0,-4.106 -1.235,-7.481 -3.704,-10.121 -2.445,-2.641 -5.953,-4.363 -10.523,-5.168"
         style="fill:#000000;fill-opacity:1;fill-rule:nonzero;stroke:none"
         id="path4483"
         inkscape:connector-curvature="0" /><path
         d="m 710.066,964.891 154.488,0 0,111.969 -154.488,0 0,-111.969 z"
         style="fill:#ffffff;fill-opacity:1;fill-rule:nonzero;stroke:none"
         id="path4485"
         inkscape:connector-curvature="0" /><path
         d="m 742.922,1011.04 0,38.2 -25.117,-38.2 25.117,0 m 21.117,-23.47 -32.851,0 0,4.692 11.734,0 0,14.078 -30.508,0 0,5.03 30.617,46.6 9.278,0 0,-46.93 14.078,0 0,-4.7 -14.078,0 0,-14.078 11.73,0 0,-4.692"
         style="fill:#000000;fill-opacity:1;fill-rule:nonzero;stroke:none"
         id="path4487"
         inkscape:connector-curvature="0" /><path
         d="m 794.164,1057.97 7.293,0 -23.207,-77.443 -7.297,0 23.211,77.443"
         style="fill:#000000;fill-opacity:1;fill-rule:nonzero;stroke:none"
         id="path4489"
         inkscape:connector-curvature="0" /><path
         d="m 848.105,1007.55 c 0,4.82 -1.234,8.56 -3.703,11.22 -2.468,2.67 -5.929,4 -10.379,4 -4.449,0 -7.906,-1.33 -10.375,-4 -2.468,-2.66 -3.703,-6.4 -3.703,-11.22 0,-4.86 1.235,-8.628 3.703,-11.292 2.469,-2.664 5.926,-3.996 10.375,-3.996 4.45,0 7.911,1.332 10.379,3.996 2.469,2.664 3.703,6.432 3.703,11.292 m -2.347,32.86 c 0,4.05 -1.039,7.21 -3.117,9.45 -2.055,2.28 -4.926,3.41 -8.618,3.41 -3.664,0 -6.539,-1.13 -8.617,-3.41 -2.074,-2.24 -3.113,-5.4 -3.113,-9.45 0,-4.11 1.039,-7.3 3.113,-9.57 2.078,-2.25 4.953,-3.38 8.617,-3.38 3.692,0 6.563,1.13 8.618,3.38 2.078,2.27 3.117,5.46 3.117,9.57 m -4.84,-15.26 c 5.207,-0.71 9.266,-2.63 12.172,-5.76 2.933,-3.1 4.402,-7.06 4.402,-11.87 0,-6.41 -2.031,-11.332 -6.086,-14.782 -4.035,-3.445 -9.828,-5.168 -17.383,-5.168 -7.527,0 -13.32,1.723 -17.378,5.168 -4.059,3.45 -6.086,8.372 -6.086,14.782 0,4.81 1.453,8.77 4.363,11.87 2.91,3.13 6.992,5.05 12.246,5.76 -4.594,0.81 -8.129,2.53 -10.598,5.17 -2.441,2.64 -3.664,6.02 -3.664,10.12 0,5.43 1.867,9.7 5.61,12.83 3.761,3.13 8.933,4.7 15.507,4.7 6.579,0 11.735,-1.57 15.473,-4.7 3.766,-3.13 5.649,-7.4 5.649,-12.83 0,-4.1 -1.235,-7.48 -3.704,-10.12 -2.445,-2.64 -5.953,-4.36 -10.523,-5.17"
         style="fill:#000000;fill-opacity:1;fill-rule:nonzero;stroke:none"
         id="path4491"
         inkscape:connector-curvature="0" /><path
         d="m 1418.72,2459.66 154.484,0 0,111.965 -154.484,0 0,-111.965 z"
         style="fill:#ffffff;fill-opacity:1;fill-rule:nonzero;stroke:none"
         id="path4493"
         inkscape:connector-curvature="0" /><path
         d="m 1428.11,2548.04 c 3.49,1.54 6.84,2.7 10.04,3.49 3.2,0.8 6.21,1.2 9.02,1.2 6.55,0 11.66,-1.45 15.33,-4.36 3.66,-2.91 5.5,-6.95 5.5,-12.14 0,-4.15 -1.3,-7.62 -3.89,-10.41 -2.59,-2.78 -6.26,-4.67 -11,-5.64 5.45,-0.79 9.68,-2.79 12.69,-6.02 3.03,-3.2 4.54,-7.36 4.54,-12.46 0,-6.24 -2.1,-11.03 -6.3,-14.38 -4.18,-3.32 -10.22,-4.98 -18.11,-4.98 -3.5,0 -6.92,0.37 -10.27,1.13 -3.33,0.78 -6.63,1.97 -9.9,3.56 l 0,14.08 4.69,0 c 0.29,-4.62 1.76,-8.13 4.4,-10.52 2.64,-2.38 6.35,-3.56 11.11,-3.56 4.65,0 8.3,1.31 10.96,3.92 2.69,2.62 4.04,6.2 4.04,10.75 0,5.2 -1.36,9.14 -4.07,11.8 -2.72,2.69 -6.7,4.04 -11.96,4.04 l -4.25,0 0,4.69 2.24,0 c 5.23,0 9.15,1.11 11.77,3.34 2.61,2.22 3.92,5.57 3.92,10.04 0,4.03 -1.07,7.12 -3.23,9.24 -2.15,2.13 -5.24,3.19 -9.27,3.19 -4.04,0 -7.16,-0.99 -9.39,-2.97 -2.22,-1.95 -3.53,-4.87 -3.92,-8.76 l -4.69,0 0,11.73"
         style="fill:#000000;fill-opacity:1;fill-rule:nonzero;stroke:none"
         id="path4495"
         inkscape:connector-curvature="0" /><path
         d="m 1502.81,2552.73 7.3,0 -23.21,-77.43 -7.3,0 23.21,77.43"
         style="fill:#000000;fill-opacity:1;fill-rule:nonzero;stroke:none"
         id="path4497"
         inkscape:connector-curvature="0" /><path
         d="m 1559.1,2550.39 0,-7.04 -32.85,0 0,-17.49 c 1.64,1.15 3.54,2 5.72,2.57 2.17,0.56 4.6,0.84 7.3,0.84 7.57,0 13.55,-2.09 17.93,-6.27 4.39,-4.18 6.59,-9.9 6.59,-17.16 0,-7.38 -2.16,-13.15 -6.49,-17.31 -4.32,-4.13 -10.41,-6.19 -18.26,-6.19 -3.15,0 -6.38,0.37 -9.68,1.13 -3.29,0.78 -6.68,1.97 -10.15,3.56 l 0,14.08 4.69,0 c 0.3,-4.57 1.71,-8.07 4.26,-10.49 2.56,-2.39 6.16,-3.59 10.77,-3.59 4.97,0 8.78,1.61 11.45,4.84 2.68,3.25 4.03,7.91 4.03,13.97 0,6.04 -1.35,10.67 -4.03,13.89 -2.69,3.23 -6.56,4.84 -11.59,4.84 -2.86,0 -5.38,-0.57 -7.56,-1.72 -2.17,-1.15 -4.1,-2.92 -5.79,-5.31 l -3.89,0 0,32.85 37.55,0"
         style="fill:#000000;fill-opacity:1;fill-rule:nonzero;stroke:none"
         id="path4499"
         inkscape:connector-curvature="0" /><path
         d="m 1418.72,1903.37 154.484,0 0,111.969 -154.484,0 0,-111.969 z"
         style="fill:#ffffff;fill-opacity:1;fill-rule:nonzero;stroke:none"
         id="path4501"
         inkscape:connector-curvature="0" /><path
         d="m 1430.45,1980.02 -4.69,0 0,11.73 c 3.42,1.52 6.85,2.68 10.3,3.49 3.47,0.8 6.87,1.21 10.19,1.21 7.43,0 13.3,-1.72 17.61,-5.17 4.32,-3.45 6.48,-8.13 6.48,-14.05 0,-6.69 -4.75,-14.69 -14.26,-23.98 -0.76,-0.7 -1.32,-1.24 -1.69,-1.61 l -18.92,-18.55 30.18,0 0,9.39 4.69,0 0,-16.43 -44.58,0 0,5.17 21.26,21.37 c 5.02,4.55 8.59,8.73 10.71,12.55 2.15,3.81 3.23,7.81 3.23,11.99 0,4.59 -1.32,8.17 -3.96,10.74 -2.62,2.59 -6.23,3.88 -10.86,3.88 -4.76,0 -8.45,-0.97 -11.07,-2.93 -2.61,-1.95 -4.16,-4.89 -4.62,-8.8"
         style="fill:#000000;fill-opacity:1;fill-rule:nonzero;stroke:none"
         id="path4503"
         inkscape:connector-curvature="0" /><path
         d="m 1502.81,1996.45 7.3,0 -23.21,-77.44 -7.3,0 23.21,77.44"
         style="fill:#000000;fill-opacity:1;fill-rule:nonzero;stroke:none"
         id="path4505"
         inkscape:connector-curvature="0" /><path
         d="m 1559.1,1994.1 0,-7.04 -32.85,0 0,-17.49 c 1.64,1.15 3.54,2 5.72,2.57 2.17,0.56 4.6,0.84 7.3,0.84 7.57,0 13.55,-2.09 17.93,-6.27 4.39,-4.18 6.59,-9.9 6.59,-17.16 0,-7.38 -2.16,-13.15 -6.49,-17.3 -4.32,-4.14 -10.41,-6.2 -18.26,-6.2 -3.15,0 -6.38,0.38 -9.68,1.13 -3.29,0.79 -6.68,1.97 -10.15,3.56 l 0,14.08 4.69,0 c 0.3,-4.57 1.71,-8.07 4.26,-10.48 2.56,-2.4 6.16,-3.6 10.77,-3.6 4.97,0 8.78,1.62 11.45,4.84 2.68,3.25 4.03,7.91 4.03,13.97 0,6.04 -1.35,10.67 -4.03,13.9 -2.69,3.23 -6.56,4.84 -11.59,4.84 -2.86,0 -5.38,-0.58 -7.56,-1.72 -2.17,-1.15 -4.1,-2.93 -5.79,-5.32 l -3.89,0 0,32.85 37.55,0"
         style="fill:#000000;fill-opacity:1;fill-rule:nonzero;stroke:none"
         id="path4507"
         inkscape:connector-curvature="0" /><path
         d="m 1418.72,1496.06 154.484,0 0,111.965 -154.484,0 0,-111.965 z"
         style="fill:#ffffff;fill-opacity:1;fill-rule:nonzero;stroke:none"
         id="path4509"
         inkscape:connector-curvature="0" /><path
         d="m 1430.45,1572.71 -4.69,0 0,11.73 c 3.42,1.52 6.85,2.68 10.3,3.48 3.47,0.81 6.87,1.21 10.19,1.21 7.43,0 13.3,-1.72 17.61,-5.17 4.32,-3.44 6.48,-8.12 6.48,-14.04 0,-6.7 -4.75,-14.69 -14.26,-23.98 -0.76,-0.71 -1.32,-1.25 -1.69,-1.61 l -18.92,-18.56 30.18,0 0,9.39 4.69,0 0,-16.43 -44.58,0 0,5.17 21.26,21.38 c 5.02,4.55 8.59,8.73 10.71,12.54 2.15,3.81 3.23,7.81 3.23,11.99 0,4.6 -1.32,8.18 -3.96,10.74 -2.62,2.59 -6.23,3.89 -10.86,3.89 -4.76,0 -8.45,-0.98 -11.07,-2.93 -2.61,-1.96 -4.16,-4.89 -4.62,-8.8"
         style="fill:#000000;fill-opacity:1;fill-rule:nonzero;stroke:none"
         id="path4511"
         inkscape:connector-curvature="0" /><path
         d="m 1502.81,1589.13 7.3,0 -23.21,-77.43 -7.3,0 23.21,77.43"
         style="fill:#000000;fill-opacity:1;fill-rule:nonzero;stroke:none"
         id="path4513"
         inkscape:connector-curvature="0" /><path
         d="m 1542.68,1523.43 c 4.52,0 7.99,1.61 10.41,4.84 2.44,3.22 3.66,7.87 3.66,13.93 0,6.06 -1.22,10.71 -3.66,13.93 -2.42,3.23 -5.89,4.84 -10.41,4.84 -4.57,0 -8.07,-1.56 -10.49,-4.69 -2.4,-3.1 -3.6,-7.62 -3.6,-13.53 0,-6.21 1.21,-10.99 3.64,-14.34 2.44,-3.32 5.92,-4.98 10.45,-4.98 m -14.09,35.2 c 2.06,2.37 4.38,4.13 6.97,5.28 2.59,1.17 5.51,1.76 8.76,1.76 6.73,0 12.04,-2.11 15.95,-6.31 3.92,-4.18 5.87,-9.9 5.87,-17.16 0,-7.11 -2.1,-12.81 -6.3,-17.09 -4.21,-4.25 -9.83,-6.38 -16.87,-6.38 -7.63,0 -13.49,2.85 -17.6,8.55 -4.11,5.72 -6.16,13.88 -6.16,24.49 0,11.88 2.36,21.07 7.08,27.57 4.74,6.53 11.41,9.79 20.01,9.79 2.33,0 4.76,-0.19 7.3,-0.58 2.57,-0.39 5.19,-0.98 7.85,-1.76 l 0,-11.74 -4.7,0 c -0.34,3.06 -1.47,5.38 -3.41,6.97 -1.9,1.61 -4.47,2.42 -7.7,2.42 -5.69,0 -9.93,-2.12 -12.72,-6.34 -2.78,-4.23 -4.23,-10.72 -4.33,-19.47"
         style="fill:#000000;fill-opacity:1;fill-rule:nonzero;stroke:none"
         id="path4515"
         inkscape:connector-curvature="0" /><path
         d="m 1418.72,1106.62 154.484,0 0,111.969 -154.484,0 0,-111.969 z"
         style="fill:#ffffff;fill-opacity:1;fill-rule:nonzero;stroke:none"
         id="path4517"
         inkscape:connector-curvature="0" /><path
         d="m 1451.57,1152.77 0,38.2 -25.12,-38.2 25.12,0 m 21.12,-23.47 -32.85,0 0,4.69 11.73,0 0,14.08 -30.51,0 0,5.02 30.62,46.61 9.28,0 0,-46.93 14.08,0 0,-4.7 -14.08,0 0,-14.08 11.73,0 0,-4.69"
         style="fill:#000000;fill-opacity:1;fill-rule:nonzero;stroke:none"
         id="path4519"
         inkscape:connector-curvature="0" /><path
         d="m 1502.81,1199.7 7.3,0 -23.21,-77.44 -7.3,0 23.21,77.44"
         style="fill:#000000;fill-opacity:1;fill-rule:nonzero;stroke:none"
         id="path4521"
         inkscape:connector-curvature="0" /><path
         d="m 1542.68,1133.99 c 4.52,0 7.99,1.62 10.41,4.84 2.44,3.23 3.66,7.87 3.66,13.94 0,6.06 -1.22,10.7 -3.66,13.93 -2.42,3.23 -5.89,4.84 -10.41,4.84 -4.57,0 -8.07,-1.57 -10.49,-4.7 -2.4,-3.1 -3.6,-7.61 -3.6,-13.52 0,-6.21 1.21,-10.99 3.64,-14.34 2.44,-3.32 5.92,-4.99 10.45,-4.99 m -14.09,35.2 c 2.06,2.37 4.38,4.13 6.97,5.28 2.59,1.17 5.51,1.76 8.76,1.76 6.73,0 12.04,-2.1 15.95,-6.3 3.92,-4.18 5.87,-9.9 5.87,-17.16 0,-7.12 -2.1,-12.81 -6.3,-17.09 -4.21,-4.25 -9.83,-6.38 -16.87,-6.38 -7.63,0 -13.49,2.85 -17.6,8.54 -4.11,5.72 -6.16,13.89 -6.16,24.5 0,11.87 2.36,21.07 7.08,27.57 4.74,6.52 11.41,9.79 20.01,9.79 2.33,0 4.76,-0.2 7.3,-0.59 2.57,-0.39 5.19,-0.98 7.85,-1.76 l 0,-11.73 -4.7,0 c -0.34,3.06 -1.47,5.38 -3.41,6.97 -1.9,1.61 -4.47,2.41 -7.7,2.41 -5.69,0 -9.93,-2.11 -12.72,-6.34 -2.78,-4.23 -4.23,-10.72 -4.33,-19.47"
         style="fill:#000000;fill-opacity:1;fill-rule:nonzero;stroke:none"
         id="path4523"
         inkscape:connector-curvature="0" /><path
         d="m 1418.72,617.168 154.484,0 0,111.969 -154.484,0 0,-111.969 z"
         style="fill:#ffffff;fill-opacity:1;fill-rule:nonzero;stroke:none"
         id="path4525"
         inkscape:connector-curvature="0" /><path
         d="m 1432.8,639.848 0,4.691 11.73,0 0,57.969 -14.08,-9.68 0,5.684 17.01,11.734 6.46,0 0,-65.707 11.73,0 0,-4.691 -32.85,0"
         style="fill:#000000;fill-opacity:1;fill-rule:nonzero;stroke:none"
         id="path4527"
         inkscape:connector-curvature="0" /><path
         d="m 1502.81,710.246 7.3,0 -23.21,-77.441 -7.3,0 23.21,77.441"
         style="fill:#000000;fill-opacity:1;fill-rule:nonzero;stroke:none"
         id="path4529"
         inkscape:connector-curvature="0" /><path
         d="m 1521.55,705.551 c 3.5,1.543 6.85,2.703 10.05,3.484 3.2,0.809 6.21,1.211 9.02,1.211 6.55,0 11.66,-1.457 15.33,-4.363 3.66,-2.91 5.5,-6.957 5.5,-12.137 0,-4.156 -1.3,-7.629 -3.89,-10.414 -2.59,-2.785 -6.26,-4.668 -11,-5.644 5.45,-0.786 9.68,-2.79 12.69,-6.016 3.03,-3.203 4.54,-7.356 4.54,-12.465 0,-6.234 -2.1,-11.027 -6.3,-14.375 -4.18,-3.324 -10.22,-4.984 -18.11,-4.984 -3.5,0 -6.92,0.379 -10.27,1.136 -3.32,0.782 -6.63,1.965 -9.9,3.555 l 0,14.078 4.69,0 c 0.3,-4.617 1.76,-8.125 4.4,-10.519 2.64,-2.371 6.34,-3.559 11.11,-3.559 4.64,0 8.3,1.309 10.97,3.922 2.68,2.617 4.03,6.199 4.03,10.746 0,5.207 -1.36,9.141 -4.07,11.805 -2.71,2.691 -6.7,4.035 -11.95,4.035 l -4.26,0 0,4.691 2.24,0 c 5.23,0 9.15,1.114 11.77,3.336 2.61,2.227 3.92,5.574 3.92,10.047 0,4.035 -1.08,7.113 -3.22,9.242 -2.16,2.125 -5.25,3.188 -9.28,3.188 -4.04,0 -7.17,-0.988 -9.39,-2.969 -2.22,-1.957 -3.53,-4.875 -3.92,-8.762 l -4.7,0 0,11.731"
         style="fill:#000000;fill-opacity:1;fill-rule:nonzero;stroke:none"
         id="path4531"
         inkscape:connector-curvature="0" /><path
         d="m 1418.72,138.348 154.484,0 0,111.969 -154.484,0 0,-111.969 z"
         style="fill:#ffffff;fill-opacity:1;fill-rule:nonzero;stroke:none"
         id="path4533"
         inkscape:connector-curvature="0" /><path
         d="m 1430.45,215 -4.69,0 0,11.73 c 3.42,1.516 6.85,2.676 10.3,3.485 3.47,0.805 6.87,1.211 10.19,1.211 7.43,0 13.3,-1.723 17.61,-5.172 4.32,-3.445 6.48,-8.125 6.48,-14.043 0,-6.695 -4.75,-14.691 -14.26,-23.981 -0.76,-0.707 -1.32,-1.246 -1.69,-1.613 l -18.92,-18.551 30.18,0 0,9.387 4.69,0 0,-16.426 -44.58,0 0,5.168 21.26,21.375 c 5.02,4.547 8.59,8.727 10.71,12.543 2.15,3.813 3.23,7.809 3.23,11.989 0,4.593 -1.32,8.175 -3.96,10.742 -2.62,2.594 -6.23,3.886 -10.86,3.886 -4.76,0 -8.45,-0.976 -11.07,-2.933 -2.61,-1.953 -4.16,-4.887 -4.62,-8.797"
         style="fill:#000000;fill-opacity:1;fill-rule:nonzero;stroke:none"
         id="path4535"
         inkscape:connector-curvature="0" /><path
         d="m 1502.81,231.426 7.3,0 -23.21,-77.442 -7.3,0 23.21,77.442"
         style="fill:#000000;fill-opacity:1;fill-rule:nonzero;stroke:none"
         id="path4537"
         inkscape:connector-curvature="0" /><path
         d="m 1521.55,226.73 c 3.5,1.54 6.85,2.704 10.05,3.485 3.2,0.805 6.21,1.211 9.02,1.211 6.55,0 11.66,-1.457 15.33,-4.363 3.66,-2.911 5.5,-6.958 5.5,-12.137 0,-4.156 -1.3,-7.629 -3.89,-10.414 -2.59,-2.785 -6.26,-4.668 -11,-5.649 5.45,-0.781 9.68,-2.785 12.69,-6.011 3.03,-3.204 4.54,-7.36 4.54,-12.465 0,-6.235 -2.1,-11.028 -6.3,-14.375 -4.18,-3.324 -10.22,-4.985 -18.11,-4.985 -3.5,0 -6.92,0.375 -10.27,1.133 -3.32,0.785 -6.63,1.969 -9.9,3.559 l 0,14.078 4.69,0 c 0.3,-4.617 1.76,-8.125 4.4,-10.524 2.64,-2.371 6.34,-3.554 11.11,-3.554 4.64,0 8.3,1.308 10.97,3.922 2.68,2.617 4.03,6.199 4.03,10.746 0,5.207 -1.36,9.14 -4.07,11.804 -2.71,2.688 -6.7,4.036 -11.95,4.036 l -4.26,0 0,4.691 2.24,0 c 5.23,0 9.15,1.113 11.77,3.336 2.61,2.226 3.92,5.574 3.92,10.047 0,4.035 -1.08,7.113 -3.22,9.242 -2.16,2.125 -5.25,3.187 -9.28,3.187 -4.04,0 -7.17,-0.988 -9.39,-2.968 -2.22,-1.957 -3.53,-4.875 -3.92,-8.762 l -4.7,0 0,11.73"
         style="fill:#000000;fill-opacity:1;fill-rule:nonzero;stroke:none"
         id="path4539"
         inkscape:connector-curvature="0" /></g></g></svg>