<?xml version="1.0" encoding="UTF-8" standalone="no"?>
<!-- Created with Inkscape (http://www.inkscape.org/) -->

<svg
   xmlns:dc="http://purl.org/dc/elements/1.1/"
   xmlns:cc="http://creativecommons.org/ns#"
   xmlns:rdf="http://www.w3.org/1999/02/22-rdf-syntax-ns#"
   xmlns:svg="http://www.w3.org/2000/svg"
   xmlns="http://www.w3.org/2000/svg"
   xmlns:sodipodi="http://sodipodi.sourceforge.net/DTD/sodipodi-0.dtd"
   xmlns:inkscape="http://www.inkscape.org/namespaces/inkscape"
   id="svg2"
   version="1.1"
   inkscape:version="0.91 r13725"
   xml:space="preserve"
   width="453.75"
   height="53.75"
   viewBox="0 0 453.75 53.75"
   sodipodi:docname="overview-line.svg"><metadata
     id="metadata8"><rdf:RDF><cc:Work
         rdf:about=""><dc:format>image/svg+xml</dc:format><dc:type
           rdf:resource="http://purl.org/dc/dcmitype/StillImage" /><dc:title></dc:title></cc:Work></rdf:RDF></metadata><defs
     id="defs6" /><sodipodi:namedview
     pagecolor="#ffffff"
     bordercolor="#666666"
     borderopacity="1"
     objecttolerance="10"
     gridtolerance="10"
     guidetolerance="10"
     inkscape:pageopacity="0"
     inkscape:pageshadow="2"
     inkscape:window-width="1257"
     inkscape:window-height="679"
     id="namedview4"
     showgrid="false"
     inkscape:zoom="1.1438377"
     inkscape:cx="168.19409"
     inkscape:cy="88.449411"
     inkscape:window-x="341"
     inkscape:window-y="158"
     inkscape:window-maximized="0"
     inkscape:current-layer="g12" /><g
     id="g10"
     inkscape:groupmode="layer"
     inkscape:label="ink_ext_XXXXXX"
     transform="matrix(1.25,0,0,-1.25,0,53.75)"><g
       id="g12"
       transform="scale(0.1,0.1)"><path
         d="m 2719.06,0 901.402,0 0,423.457 -901.402,0 0,-423.457 z"
         style="fill:#ffffff;fill-opacity:1;fill-rule:nonzero;stroke:none"
         id="path14"
         inkscape:connector-curvature="0" /><path
         d="m 2719.06,0 901.402,0 0,423.457 -901.402,0 0,-423.457 z"
         style="fill:none;stroke:#000000;stroke-width:2.83459997;stroke-linecap:butt;stroke-linejoin:miter;stroke-miterlimit:10;stroke-dasharray:none;stroke-opacity:1"
         id="path16"
         inkscape:connector-curvature="0" /><path
         d="m 2940.58,198.676 c -2.42,-7.699 -6.47,-13.543 -12.14,-17.528 -5.67,-3.957 -12.84,-5.937 -21.52,-5.937 -5.33,0 -10.28,0.902 -14.85,2.711 -4.55,1.836 -8.59,4.512 -12.14,8.031 -4.08,4.082 -7.13,8.715 -9.13,13.895 -1.98,5.183 -2.97,11.039 -2.97,17.566 0,12.66 3.66,22.867 10.97,30.613 7.33,7.774 17,11.661 29,11.661 4.45,0 9.18,-0.391 14.19,-1.172 5.03,-0.782 10.45,-1.957 16.24,-3.52 l 0,-18.773 -4.69,0 c -1.42,6.429 -4.25,11.16 -8.51,14.191 -4.23,3.055 -10.15,4.582 -17.78,4.582 -9.09,0 -15.99,-3.18 -20.68,-9.535 -4.67,-6.356 -7,-15.703 -7,-28.047 0,-12.297 2.31,-21.621 6.93,-27.976 4.61,-6.356 11.42,-9.536 20.42,-9.536 6.26,0 11.41,1.567 15.47,4.696 4.06,3.152 6.99,7.843 8.8,14.078 l 9.39,0"
         style="fill:#000000;fill-opacity:1;fill-rule:nonzero;stroke:none"
         id="path18"
         inkscape:connector-curvature="0" /><path
         d="m 2979.31,179.902 c 6.19,0 10.85,2.176 14.01,6.528 3.18,4.375 4.76,10.816 4.76,19.324 0,8.504 -1.58,14.922 -4.76,19.25 -3.16,4.351 -7.82,6.523 -14.01,6.523 -6.18,0 -10.86,-2.172 -14.04,-6.523 -3.16,-4.328 -4.73,-10.746 -4.73,-19.25 0,-8.508 1.59,-14.949 4.76,-19.324 3.18,-4.352 7.85,-6.528 14.01,-6.528 m 0,-4.691 c -8.48,0 -15.3,2.785 -20.46,8.359 -5.13,5.575 -7.7,12.969 -7.7,22.184 0,9.215 2.57,16.598 7.7,22.144 5.13,5.551 11.95,8.325 20.46,8.325 8.51,0 15.33,-2.774 20.46,-8.325 5.13,-5.546 7.7,-12.929 7.7,-22.144 0,-9.215 -2.57,-16.609 -7.7,-22.184 -5.13,-5.574 -11.95,-8.359 -20.46,-8.359"
         style="fill:#000000;fill-opacity:1;fill-rule:nonzero;stroke:none"
         id="path20"
         inkscape:connector-curvature="0" /><path
         d="m 3037.18,182.25 9.39,0 0,-4.695 -28.16,0 0,4.695 9.38,0 0,75.094 -9.38,0 0,4.691 18.77,0 0,-79.785"
         style="fill:#000000;fill-opacity:1;fill-rule:nonzero;stroke:none"
         id="path22"
         inkscape:connector-curvature="0" /><path
         d="m 3073.29,182.25 9.39,0 0,-4.695 -28.16,0 0,4.695 9.38,0 0,75.094 -9.38,0 0,4.691 18.77,0 0,-79.785"
         style="fill:#000000;fill-opacity:1;fill-rule:nonzero;stroke:none"
         id="path24"
         inkscape:connector-curvature="0" /><path
         d="m 3130.52,195.23 0,12.833 -14.23,0 c -5.48,0 -9.56,-1.149 -12.25,-3.446 -2.68,-2.301 -4.03,-5.832 -4.03,-10.597 0,-4.329 1.36,-7.762 4.07,-10.305 2.74,-2.539 6.43,-3.813 11.07,-3.813 4.6,0 8.3,1.418 11.11,4.254 2.84,2.836 4.26,6.528 4.26,11.074 m 9.38,17.454 0,-30.434 9.39,0 0,-4.695 -18.77,0 0,5.207 c -2.28,-2.59 -4.91,-4.496 -7.89,-5.719 -2.98,-1.223 -6.47,-1.832 -10.49,-1.832 -6.59,0 -11.84,1.684 -15.73,5.059 -3.86,3.398 -5.79,7.98 -5.79,13.75 0,5.941 2.13,10.546 6.38,13.824 4.25,3.273 10.26,4.914 18,4.914 l 15.52,0 0,3.996 c 0,4.691 -1.4,8.32 -4.18,10.887 -2.79,2.593 -6.71,3.886 -11.77,3.886 -4.16,0 -7.47,-0.988 -9.94,-2.968 -2.47,-1.981 -4.01,-4.903 -4.62,-8.762 l -4.69,0 0,11.73 c 3.49,1.567 6.89,2.739 10.19,3.524 3.3,0.781 6.53,1.172 9.68,1.172 8.04,0 14.17,-2.004 18.37,-6.012 4.23,-4.012 6.34,-9.852 6.34,-17.527"
         style="fill:#000000;fill-opacity:1;fill-rule:nonzero;stroke:none"
         id="path26"
         inkscape:connector-curvature="0" /><path
         d="m 3164.21,229.184 -9.39,0 0,4.691 9.39,0 0,18.773 9.39,0 0,-18.773 18.33,0 0,-4.691 -18.33,0 0,-38.133 c 0,-4.77 0.46,-7.824 1.39,-9.168 0.93,-1.32 2.65,-1.981 5.17,-1.981 2.57,0 4.44,0.735 5.61,2.2 1.2,1.492 1.84,3.886 1.91,7.187 l 7.04,0 c -0.27,-4.887 -1.64,-8.457 -4.11,-10.707 -2.47,-2.246 -6.22,-3.371 -11.25,-3.371 -5.53,0 -9.44,1.195 -11.74,3.594 -2.27,2.394 -3.41,6.476 -3.41,12.246 l 0,38.133"
         style="fill:#000000;fill-opacity:1;fill-rule:nonzero;stroke:none"
         id="path28"
         inkscape:connector-curvature="0" /><path
         d="m 3256.46,205.715 -44.59,0 0,-0.477 c 0,-8.359 1.61,-14.675 4.84,-18.957 3.25,-4.25 8.03,-6.379 14.34,-6.379 4.81,0 8.76,1.188 11.84,3.559 3.11,2.371 5.28,5.879 6.53,10.523 l 7.04,0 c -1.59,-6.234 -4.55,-10.929 -8.88,-14.082 -4.3,-3.129 -9.96,-4.691 -16.97,-4.691 -8.46,0 -15.27,2.785 -20.43,8.359 -5.13,5.575 -7.7,12.969 -7.7,22.184 0,9.141 2.48,16.5 7.45,22.07 4.96,5.598 11.47,8.399 19.54,8.399 8.6,0 15.21,-2.606 19.8,-7.809 4.62,-5.207 7.02,-12.773 7.19,-22.699 m -9.39,4.695 c -0.25,6.988 -1.85,12.258 -4.8,15.801 -2.96,3.547 -7.2,5.316 -12.73,5.316 -5.18,0 -9.26,-1.781 -12.24,-5.351 -2.96,-3.571 -4.77,-8.824 -5.43,-15.766 l 35.2,0"
         style="fill:#000000;fill-opacity:1;fill-rule:nonzero;stroke:none"
         id="path30"
         inkscape:connector-curvature="0" /><path
         d="m 3318.31,233.875 0,-14.078 -4.69,0 c -0.2,3.152 -1.07,5.5 -2.6,7.039 -1.52,1.562 -3.74,2.348 -6.68,2.348 -5.33,0 -9.42,-1.774 -12.28,-5.317 -2.84,-3.547 -4.26,-8.64 -4.26,-15.293 l 0,-26.324 11.74,0 0,-4.695 -30.51,0 0,4.695 9.39,0 0,46.934 -9.39,0 0,4.691 18.77,0 0,-9.605 c 2.01,4.058 4.6,7.062 7.78,9.019 3.18,1.957 7.04,2.934 11.58,2.934 1.69,0 3.45,-0.207 5.29,-0.625 1.85,-0.391 3.81,-0.965 5.86,-1.723"
         style="fill:#000000;fill-opacity:1;fill-rule:nonzero;stroke:none"
         id="path32"
         inkscape:connector-curvature="0" /><path
         d="m 3362.73,195.23 0,12.833 -14.22,0 c -5.48,0 -9.56,-1.149 -12.25,-3.446 -2.69,-2.301 -4.03,-5.832 -4.03,-10.597 0,-4.329 1.35,-7.762 4.07,-10.305 2.74,-2.539 6.43,-3.813 11.07,-3.813 4.59,0 8.3,1.418 11.11,4.254 2.84,2.836 4.25,6.528 4.25,11.074 m 9.39,17.454 0,-30.434 9.39,0 0,-4.695 -18.78,0 0,5.207 c -2.27,-2.59 -4.9,-4.496 -7.88,-5.719 -2.98,-1.223 -6.48,-1.832 -10.49,-1.832 -6.6,0 -11.84,1.684 -15.73,5.059 -3.86,3.398 -5.79,7.98 -5.79,13.75 0,5.941 2.12,10.546 6.38,13.824 4.25,3.273 10.25,4.914 18,4.914 l 15.51,0 0,3.996 c 0,4.691 -1.39,8.32 -4.18,10.887 -2.78,2.593 -6.71,3.886 -11.77,3.886 -4.15,0 -7.46,-0.988 -9.93,-2.968 -2.47,-1.981 -4.01,-4.903 -4.62,-8.762 l -4.7,0 0,11.73 c 3.5,1.567 6.9,2.739 10.2,3.524 3.3,0.781 6.52,1.172 9.68,1.172 8.04,0 14.16,-2.004 18.37,-6.012 4.22,-4.012 6.34,-9.852 6.34,-17.527"
         style="fill:#000000;fill-opacity:1;fill-rule:nonzero;stroke:none"
         id="path34"
         inkscape:connector-curvature="0" /><path
         d="m 3408.16,182.25 9.39,0 0,-4.695 -28.16,0 0,4.695 9.39,0 0,75.094 -9.39,0 0,4.691 18.77,0 0,-79.785"
         style="fill:#000000;fill-opacity:1;fill-rule:nonzero;stroke:none"
         id="path36"
         inkscape:connector-curvature="0" /><path
         d="m 3427.84,179.902 0,14.082 4.7,0 c 0.14,-4.718 1.55,-8.25 4.21,-10.597 2.69,-2.324 6.64,-3.485 11.85,-3.485 4.72,0 8.29,0.895 10.74,2.676 2.47,1.809 3.7,4.426 3.7,7.848 0,2.687 -0.88,4.863 -2.64,6.527 -1.73,1.66 -5.42,3.434 -11.07,5.317 l -7.33,2.492 c -4.96,1.566 -8.57,3.519 -10.82,5.867 -2.22,2.348 -3.34,5.328 -3.34,8.945 0,5.207 1.95,9.278 5.83,12.211 3.92,2.957 9.32,4.438 16.21,4.438 3.08,0 6.31,-0.403 9.68,-1.211 3.4,-0.782 6.9,-1.942 10.52,-3.485 l 0,-11.73 -4.69,0 c -0.15,3.691 -1.53,6.562 -4.14,8.617 -2.59,2.074 -6.11,3.113 -10.56,3.113 -4.43,0 -7.78,-0.742 -10.05,-2.234 -2.27,-1.469 -3.41,-3.691 -3.41,-6.672 -0.02,-2.473 0.78,-4.465 2.42,-5.98 1.66,-1.489 4.98,-3.004 9.94,-4.543 l 7.95,-2.715 c 5.26,-1.637 9.05,-3.727 11.37,-6.27 2.32,-2.543 3.5,-5.843 3.52,-9.902 0,-5.598 -2.07,-9.996 -6.2,-13.199 -4.13,-3.199 -9.82,-4.801 -17.08,-4.801 -3.69,0 -7.3,0.391 -10.82,1.172 -3.49,0.781 -6.99,1.957 -10.49,3.519"
         style="fill:#000000;fill-opacity:1;fill-rule:nonzero;stroke:none"
         id="path38"
         inkscape:connector-curvature="0" /><path
         d="m 1359.53,0 901.402,0 0,423.457 -901.402,0 0,-423.457 z"
         style="fill:#ffffff;fill-opacity:1;fill-rule:nonzero;stroke:none"
         id="path40"
         inkscape:connector-curvature="0" /><path
         d="m 1359.53,0 901.402,0 0,423.457 -901.402,0 0,-423.457 z"
         style="fill:none;stroke:#000000;stroke-width:2.83459997;stroke-linecap:butt;stroke-linejoin:miter;stroke-miterlimit:10;stroke-dasharray:none;stroke-opacity:1"
         id="path42"
         inkscape:connector-curvature="0" /><path
         d="m 1617.7,177.555 0,4.695 9.38,0 0,70.398 -25.81,0 0,-11.734 -4.7,0 0,16.43 72.75,0 0,-16.43 -4.69,0 0,11.734 -25.82,0 0,-70.398 9.39,0 0,-4.695 -30.5,0"
         style="fill:#000000;fill-opacity:1;fill-rule:nonzero;stroke:none"
         id="path44"
         inkscape:connector-curvature="0" /><path
         d="m 1707,195.23 0,12.833 -14.22,0 c -5.48,0 -9.56,-1.149 -12.25,-3.446 -2.69,-2.301 -4.03,-5.832 -4.03,-10.597 0,-4.329 1.35,-7.762 4.07,-10.305 2.73,-2.539 6.43,-3.813 11.07,-3.813 4.59,0 8.3,1.418 11.11,4.254 2.84,2.836 4.25,6.528 4.25,11.074 m 9.39,17.454 0,-30.434 9.39,0 0,-4.695 -18.78,0 0,5.207 c -2.27,-2.59 -4.9,-4.496 -7.88,-5.719 -2.98,-1.223 -6.48,-1.832 -10.49,-1.832 -6.6,0 -11.84,1.684 -15.73,5.059 -3.86,3.398 -5.79,7.98 -5.79,13.75 0,5.941 2.12,10.546 6.38,13.824 4.25,3.273 10.25,4.914 18,4.914 l 15.51,0 0,3.996 c 0,4.691 -1.39,8.32 -4.18,10.887 -2.78,2.593 -6.71,3.886 -11.77,3.886 -4.15,0 -7.46,-0.988 -9.93,-2.968 -2.47,-1.981 -4.01,-4.903 -4.62,-8.762 l -4.7,0 0,11.73 c 3.5,1.567 6.9,2.739 10.2,3.524 3.3,0.781 6.52,1.172 9.68,1.172 8.04,0 14.16,-2.004 18.37,-6.012 4.22,-4.012 6.34,-9.852 6.34,-17.527"
         style="fill:#000000;fill-opacity:1;fill-rule:nonzero;stroke:none"
         id="path46"
         inkscape:connector-curvature="0" /><path
         d="m 1782.94,233.875 0,-14.078 -4.69,0 c -0.2,3.152 -1.07,5.5 -2.61,7.039 -1.51,1.562 -3.74,2.348 -6.67,2.348 -5.33,0 -9.42,-1.774 -12.28,-5.317 -2.84,-3.547 -4.26,-8.64 -4.26,-15.293 l 0,-26.324 11.74,0 0,-4.695 -30.51,0 0,4.695 9.39,0 0,46.934 -9.39,0 0,4.691 18.77,0 0,-9.605 c 2.01,4.058 4.6,7.062 7.78,9.019 3.17,1.957 7.04,2.934 11.58,2.934 1.69,0 3.45,-0.207 5.28,-0.625 1.86,-0.391 3.82,-0.965 5.87,-1.723"
         style="fill:#000000;fill-opacity:1;fill-rule:nonzero;stroke:none"
         id="path48"
         inkscape:connector-curvature="0" /><path
         d="m 1839.09,229.184 0,-51.848 c 0,-7.43 -2.27,-13.164 -6.82,-17.195 -4.52,-4.036 -10.97,-6.051 -19.36,-6.051 -3.76,0 -7.38,0.39 -10.85,1.172 -3.45,0.785 -6.75,1.957 -9.9,3.519 l 0,11.735 4.69,0 c 0.66,-4.059 2.24,-7.028 4.73,-8.911 2.49,-1.882 6.06,-2.824 10.71,-2.824 6.01,0 10.41,1.492 13.2,4.477 2.81,2.98 4.22,7.676 4.22,14.078 l 0,7.113 c -1.94,-3.152 -4.39,-5.476 -7.37,-6.965 -2.98,-1.515 -6.66,-2.273 -11.04,-2.273 -6.99,0 -12.71,2.82 -17.16,8.469 -4.45,5.644 -6.68,13.004 -6.68,22.074 0,9.066 2.22,16.414 6.64,22.035 4.43,5.621 10.16,8.434 17.2,8.434 4.38,0 8.06,-0.844 11.04,-2.532 2.98,-1.687 5.43,-4.3 7.37,-7.843 l 0,8.027 18.77,0 0,-4.691 -9.39,0 m -9.38,-21.086 c 0,7.605 -1.41,13.41 -4.22,17.418 -2.79,4.007 -6.86,6.011 -12.21,6.011 -5.43,0 -9.52,-2.16 -12.28,-6.488 -2.77,-4.328 -4.15,-10.754 -4.15,-19.285 0,-8.508 1.38,-14.949 4.15,-19.324 2.76,-4.352 6.85,-6.528 12.28,-6.528 5.35,0 9.42,1.895 12.21,5.684 2.81,3.789 4.22,9.312 4.22,16.574 l 0,5.938"
         style="fill:#000000;fill-opacity:1;fill-rule:nonzero;stroke:none"
         id="path50"
         inkscape:connector-curvature="0" /><path
         d="m 1912.95,205.715 -44.59,0 0,-0.477 c 0,-8.359 1.61,-14.675 4.84,-18.957 3.25,-4.25 8.03,-6.379 14.34,-6.379 4.81,0 8.76,1.188 11.84,3.559 3.1,2.371 5.28,5.879 6.53,10.523 l 7.04,0 c -1.59,-6.234 -4.55,-10.929 -8.88,-14.082 -4.3,-3.129 -9.96,-4.691 -16.97,-4.691 -8.46,0 -15.27,2.785 -20.43,8.359 -5.13,5.575 -7.7,12.969 -7.7,22.184 0,9.141 2.48,16.5 7.45,22.07 4.96,5.598 11.47,8.399 19.54,8.399 8.6,0 15.2,-2.606 19.8,-7.809 4.62,-5.207 7.01,-12.773 7.19,-22.699 m -9.39,4.695 c -0.24,6.988 -1.85,12.258 -4.8,15.801 -2.96,3.547 -7.2,5.316 -12.73,5.316 -5.18,0 -9.26,-1.781 -12.24,-5.351 -2.96,-3.571 -4.77,-8.824 -5.43,-15.766 l 35.2,0"
         style="fill:#000000;fill-opacity:1;fill-rule:nonzero;stroke:none"
         id="path52"
         inkscape:connector-curvature="0" /><path
         d="m 1932.56,229.184 -9.38,0 0,4.691 9.38,0 0,18.773 9.39,0 0,-18.773 18.33,0 0,-4.691 -18.33,0 0,-38.133 c 0,-4.77 0.46,-7.824 1.39,-9.168 0.93,-1.32 2.66,-1.981 5.17,-1.981 2.57,0 4.44,0.735 5.61,2.2 1.2,1.492 1.84,3.886 1.91,7.187 l 7.04,0 c -0.27,-4.887 -1.64,-8.457 -4.11,-10.707 -2.47,-2.246 -6.22,-3.371 -11.25,-3.371 -5.53,0 -9.44,1.195 -11.74,3.594 -2.27,2.394 -3.41,6.476 -3.41,12.246 l 0,38.133"
         style="fill:#000000;fill-opacity:1;fill-rule:nonzero;stroke:none"
         id="path54"
         inkscape:connector-curvature="0" /><path
         d="m 1973.18,179.902 0,14.082 4.7,0 c 0.14,-4.718 1.55,-8.25 4.21,-10.597 2.69,-2.324 6.64,-3.485 11.84,-3.485 4.72,0 8.3,0.895 10.75,2.676 2.46,1.809 3.7,4.426 3.7,7.848 0,2.687 -0.88,4.863 -2.64,6.527 -1.74,1.66 -5.43,3.434 -11.07,5.317 l -7.34,2.492 c -4.96,1.566 -8.56,3.519 -10.81,5.867 -2.23,2.348 -3.34,5.328 -3.34,8.945 0,5.207 1.95,9.278 5.83,12.211 3.91,2.957 9.31,4.438 16.21,4.438 3.08,0 6.3,-0.403 9.68,-1.211 3.39,-0.782 6.9,-1.942 10.52,-3.485 l 0,-11.73 -4.69,0 c -0.15,3.691 -1.53,6.562 -4.15,8.617 -2.59,2.074 -6.11,3.113 -10.56,3.113 -4.42,0 -7.77,-0.742 -10.04,-2.234 -2.28,-1.469 -3.41,-3.691 -3.41,-6.672 -0.03,-2.473 0.78,-4.465 2.42,-5.98 1.66,-1.489 4.97,-3.004 9.93,-4.543 l 7.96,-2.715 c 5.26,-1.637 9.05,-3.727 11.37,-6.27 2.32,-2.543 3.49,-5.843 3.52,-9.902 0,-5.598 -2.07,-9.996 -6.2,-13.199 -4.13,-3.199 -9.83,-4.801 -17.09,-4.801 -3.69,0 -7.29,0.391 -10.81,1.172 -3.5,0.781 -6.99,1.957 -10.49,3.519"
         style="fill:#000000;fill-opacity:1;fill-rule:nonzero;stroke:none"
         id="path56"
         inkscape:connector-curvature="0" /><path
         d="m 0,0 901.402,0 0,423.457 L 0,423.457 0,0 Z"
         style="fill:#ffffff;fill-opacity:1;fill-rule:nonzero;stroke:none"
         id="path58"
         inkscape:connector-curvature="0" /><path
         d="m 0,0 901.402,0 0,423.457 L 0,423.457 0,0 Z"
         style="fill:none;stroke:#000000;stroke-width:2.83459997;stroke-linecap:butt;stroke-linejoin:miter;stroke-miterlimit:10;stroke-dasharray:none;stroke-opacity:1"
         id="path60"
         inkscape:connector-curvature="0" /><path
         d="m 231.547,179.902 0,18.774 4.695,-0.074 c 0.196,-6.356 2.055,-11.059 5.574,-14.118 3.52,-3.054 8.872,-4.582 16.059,-4.582 6.699,0 11.809,1.321 15.328,3.961 3.52,2.664 5.277,6.539 5.277,11.621 0,4.082 -0.964,7.211 -2.894,9.387 -1.934,2.176 -6.016,4.305 -12.246,6.383 l -10.121,3.336 c -7.946,2.371 -13.543,5.316 -16.793,8.836 -3.25,3.519 -4.879,8.347 -4.879,14.484 0,6.891 2.41,12.246 7.226,16.059 4.84,3.812 11.622,5.719 20.348,5.719 3.715,0 7.785,-0.403 12.211,-1.208 4.449,-0.785 9.18,-1.945 14.191,-3.484 l 0,-16.426 -4.695,0 c -0.609,5.793 -2.504,9.973 -5.683,12.539 -3.176,2.59 -8.004,3.887 -14.485,3.887 -5.668,0 -9.984,-1.199 -12.941,-3.594 -2.957,-2.394 -4.438,-5.879 -4.438,-10.449 -0.074,-4.207 0.942,-7.457 3.043,-9.754 2.129,-2.297 6.66,-4.461 13.606,-6.488 l 9.496,-3.117 c 7.453,-2.274 12.769,-5.133 15.949,-8.582 3.203,-3.422 4.816,-8.016 4.84,-13.785 0,-7.946 -2.555,-13.934 -7.664,-17.969 -5.11,-4.031 -12.723,-6.047 -22.844,-6.047 -4.519,0 -9.129,0.391 -13.82,1.172 -4.696,0.758 -9.473,1.93 -14.34,3.519"
         style="fill:#000000;fill-opacity:1;fill-rule:nonzero;stroke:none"
         id="path62"
         inkscape:connector-curvature="0" /><path
         d="m 331.477,179.902 c 6.183,0 10.851,2.176 14.007,6.528 3.176,4.375 4.766,10.816 4.766,19.324 0,8.504 -1.59,14.922 -4.766,19.25 -3.156,4.351 -7.824,6.523 -14.007,6.523 -6.184,0 -10.868,-2.172 -14.043,-6.523 -3.153,-4.328 -4.731,-10.746 -4.731,-19.25 0,-8.508 1.59,-14.949 4.766,-19.324 3.179,-4.352 7.847,-6.528 14.008,-6.528 m 0,-4.691 c -8.481,0 -15.301,2.785 -20.461,8.359 -5.133,5.575 -7.7,12.969 -7.7,22.184 0,9.215 2.567,16.598 7.7,22.144 5.132,5.551 11.953,8.325 20.461,8.325 8.507,0 15.328,-2.774 20.461,-8.325 5.132,-5.546 7.699,-12.929 7.699,-22.144 0,-9.215 -2.567,-16.609 -7.699,-22.184 -5.133,-5.574 -11.954,-8.359 -20.461,-8.359"
         style="fill:#000000;fill-opacity:1;fill-rule:nonzero;stroke:none"
         id="path64"
         inkscape:connector-curvature="0" /><path
         d="m 403.426,233.875 18.773,0 0,-53.973 9.387,0 0,-2.347 -18.773,0 0,7.113 c -1.809,-3.078 -4.141,-5.426 -7.004,-7.039 -2.86,-1.613 -6.184,-2.418 -9.973,-2.418 -6.258,0 -10.863,1.684 -13.824,5.059 -2.93,3.375 -4.399,8.675 -4.399,15.914 l 0,33 -9.386,0 0,4.691 18.773,0 0,-34.391 c 0,-7.48 0.855,-12.613 2.566,-15.402 1.711,-2.785 4.754,-4.18 9.129,-4.18 4.598,0 8.094,1.809 10.489,5.426 2.418,3.645 3.629,8.922 3.629,15.84 l 0,28.016 -9.387,0 0,4.691"
         style="fill:#000000;fill-opacity:1;fill-rule:nonzero;stroke:none"
         id="path66"
         inkscape:connector-curvature="0" /><path
         d="m 492.066,233.875 0,-14.078 -4.691,0 c -0.195,3.152 -1.062,5.5 -2.605,7.039 -1.512,1.562 -3.739,2.348 -6.672,2.348 -5.328,0 -9.422,-1.774 -12.282,-5.317 -2.836,-3.547 -4.253,-8.64 -4.253,-15.293 l 0,-26.324 11.73,0 0,-4.695 -30.504,0 0,4.695 9.387,0 0,46.934 -9.387,0 0,4.691 18.774,0 0,-9.605 c 2.003,4.058 4.593,7.062 7.773,9.019 3.176,1.957 7.039,2.934 11.586,2.934 1.687,0 3.445,-0.207 5.281,-0.625 1.856,-0.391 3.813,-0.965 5.863,-1.723"
         style="fill:#000000;fill-opacity:1;fill-rule:nonzero;stroke:none"
         id="path68"
         inkscape:connector-curvature="0" /><path
         d="m 548.223,193.984 c -1.418,-6.113 -4.133,-10.769 -8.141,-13.972 -4.008,-3.199 -9.203,-4.801 -15.582,-4.801 -8.387,0 -15.133,2.785 -20.242,8.359 -5.11,5.575 -7.664,12.969 -7.664,22.184 0,9.238 2.531,16.621 7.594,22.144 5.058,5.551 11.742,8.325 20.054,8.325 3.617,0 7.223,-0.391 10.817,-1.172 3.593,-0.758 7.199,-1.934 10.816,-3.524 l 0,-14.078 -4.691,0 c -0.832,4.914 -2.641,8.481 -5.43,10.707 -2.785,2.25 -6.77,3.371 -11.953,3.371 -5.867,0 -10.301,-2.148 -13.309,-6.453 -3.008,-4.301 -4.512,-10.742 -4.512,-19.32 0,-8.582 1.504,-15.035 4.512,-19.359 3.031,-4.329 7.528,-6.493 13.492,-6.493 4.77,0 8.571,1.161 11.403,3.485 2.836,2.347 4.769,5.879 5.797,10.597 l 7.039,0"
         style="fill:#000000;fill-opacity:1;fill-rule:nonzero;stroke:none"
         id="path70"
         inkscape:connector-curvature="0" /><path
         d="m 613.578,205.715 -44.586,0 0,-0.477 c 0,-8.359 1.613,-14.675 4.84,-18.957 3.25,-4.25 8.031,-6.379 14.336,-6.379 4.816,0 8.766,1.188 11.844,3.559 3.105,2.371 5.281,5.879 6.527,10.523 l 7.039,0 c -1.59,-6.234 -4.547,-10.929 -8.871,-14.082 -4.305,-3.129 -9.961,-4.691 -16.977,-4.691 -8.46,0 -15.265,2.785 -20.425,8.359 -5.133,5.575 -7.7,12.969 -7.7,22.184 0,9.141 2.481,16.5 7.446,22.07 4.961,5.598 11.476,8.399 19.543,8.399 8.601,0 15.203,-2.606 19.797,-7.809 4.621,-5.207 7.015,-12.773 7.187,-22.699 m -9.387,4.695 c -0.242,6.988 -1.843,12.258 -4.8,15.801 -2.961,3.547 -7.2,5.316 -12.727,5.316 -5.18,0 -9.262,-1.781 -12.246,-5.351 -2.957,-3.571 -4.766,-8.824 -5.426,-15.766 l 35.199,0"
         style="fill:#000000;fill-opacity:1;fill-rule:nonzero;stroke:none"
         id="path72"
         inkscape:connector-curvature="0" /><path
         d="m 628.504,179.902 0,14.082 4.691,0 c 0.149,-4.718 1.555,-8.25 4.219,-10.597 2.688,-2.324 6.637,-3.485 11.844,-3.485 4.715,0 8.297,0.895 10.742,2.676 2.469,1.809 3.703,4.426 3.703,7.848 0,2.687 -0.879,4.863 -2.64,6.527 -1.735,1.66 -5.426,3.434 -11.075,5.317 l -7.332,2.492 c -4.961,1.566 -8.566,3.519 -10.816,5.867 -2.227,2.348 -3.336,5.328 -3.336,8.945 0,5.207 1.941,9.278 5.828,12.211 3.91,2.957 9.313,4.438 16.207,4.438 3.082,0 6.309,-0.403 9.68,-1.211 3.398,-0.782 6.906,-1.942 10.523,-3.485 l 0,-11.73 -4.691,0 c -0.149,3.691 -1.531,6.562 -4.145,8.617 -2.59,2.074 -6.113,3.113 -10.558,3.113 -4.426,0 -7.774,-0.742 -10.047,-2.234 -2.274,-1.469 -3.41,-3.691 -3.41,-6.672 -0.028,-2.473 0.781,-4.465 2.418,-5.98 1.664,-1.489 4.976,-3.004 9.937,-4.543 l 7.957,-2.715 c 5.254,-1.637 9.043,-3.727 11.367,-6.27 2.321,-2.543 3.496,-5.843 3.52,-9.902 0,-5.598 -2.067,-9.996 -6.199,-13.199 -4.129,-3.199 -9.825,-4.801 -17.086,-4.801 -3.692,0 -7.297,0.391 -10.817,1.172 -3.496,0.781 -6.988,1.957 -10.484,3.519"
         style="fill:#000000;fill-opacity:1;fill-rule:nonzero;stroke:none"
         id="path74"
         inkscape:connector-curvature="0" /><path
         d="m 901.402,317.594 387.248,0"
         style="fill:none;stroke:#000000;stroke-width:2.83459997;stroke-linecap:butt;stroke-linejoin:miter;stroke-miterlimit:10;stroke-dasharray:none;stroke-opacity:1"
         id="path76"
         inkscape:connector-curvature="0" /><path
         d="m 1288.65,282.16 70.87,35.434 -70.87,35.433"
         style="fill:#000000;fill-opacity:1;fill-rule:evenodd;stroke:none"
         id="path78"
         inkscape:connector-curvature="0" /><path
         d="m 1288.65,282.16 70.87,35.434 -70.87,35.433 0,-70.867 z"
         style="fill:none;stroke:#000000;stroke-width:2.83459997;stroke-linecap:butt;stroke-linejoin:miter;stroke-miterlimit:10;stroke-dasharray:none;stroke-opacity:1"
         id="path80"
         inkscape:connector-curvature="0" /><path
         d="m 1359.53,105.863 -387.249,0"
         style="fill:none;stroke:#000000;stroke-width:2.83459997;stroke-linecap:butt;stroke-linejoin:miter;stroke-miterlimit:10;stroke-dasharray:none;stroke-opacity:1"
         id="path82"
         inkscape:connector-curvature="0" /><path
         d="M 972.281,141.297 901.418,105.863 972.281,70.4336"
         style="fill:#000000;fill-opacity:1;fill-rule:evenodd;stroke:none"
         id="path84"
         inkscape:connector-curvature="0" /><path
         d="m 972.281,141.297 -70.863,-35.434 70.863,-35.4294 0,70.8634 z"
         style="fill:none;stroke:#000000;stroke-width:2.83459997;stroke-linecap:butt;stroke-linejoin:miter;stroke-miterlimit:10;stroke-dasharray:none;stroke-opacity:1"
         id="path86"
         inkscape:connector-curvature="0" /><path
         d="m 2260.93,211.73 387.25,0"
         style="fill:none;stroke:#000000;stroke-width:2.83459997;stroke-linecap:butt;stroke-linejoin:miter;stroke-miterlimit:10;stroke-dasharray:none;stroke-opacity:1"
         id="path88"
         inkscape:connector-curvature="0" /><path
         d="m 2648.18,176.297 70.87,35.433 -70.87,35.43"
         style="fill:#000000;fill-opacity:1;fill-rule:evenodd;stroke:none"
         id="path90"
         inkscape:connector-curvature="0" /><path
         d="m 2648.18,176.297 70.87,35.433 -70.87,35.43 0,-70.863 z"
         style="fill:none;stroke:#000000;stroke-width:2.83459997;stroke-linecap:butt;stroke-linejoin:miter;stroke-miterlimit:10;stroke-dasharray:none;stroke-opacity:1"
         id="path92"
         inkscape:connector-curvature="0" /></g></g></svg>